<?xml version="1.0" standalone="no"?>
<!DOCTYPE svg PUBLIC "-//W3C//DTD SVG 1.1//EN" "http://www.w3.org/Graphics/SVG/1.1/DTD/svg11.dtd" >
<svg xmlns="http://www.w3.org/2000/svg">
<metadata>
Created by FontForge 20120731 at Thu Jun 22 13:40:31 2017
 By admin
</metadata>
<defs>
<font id="iconfont" horiz-adv-x="1024" >
  <font-face 
    font-family="iconfont"
    font-weight="500"
    font-stretch="normal"
    units-per-em="1024"
    panose-1="2 0 6 3 0 0 0 0 0 0"
    ascent="896"
    descent="-128"
    x-height="792"
    bbox="-1.09091 -212 1494 904"
    underline-thickness="0"
    underline-position="0"
    unicode-range="U+0078-E810"
  />
<missing-glyph 
 />
    <glyph glyph-name=".notdef" 
 />
    <glyph glyph-name=".notdef" 
 />
    <glyph glyph-name=".null" horiz-adv-x="0" 
 />
    <glyph glyph-name="nonmarkingreturn" horiz-adv-x="341" 
 />
    <glyph glyph-name="x" unicode="x" horiz-adv-x="1001" 
d="M281 543q-27 -1 -53 -1h-83q-18 0 -36.5 -6t-32.5 -18.5t-23 -32t-9 -45.5v-76h912v41q0 16 -0.5 30t-0.5 18q0 13 -5 29t-17 29.5t-31.5 22.5t-49.5 9h-133v-97h-438v97zM955 310v-52q0 -23 0.5 -52t0.5 -58t-10.5 -47.5t-26 -30t-33 -16t-31.5 -4.5q-14 -1 -29.5 -0.5
t-29.5 0.5h-32l-45 128h-439l-44 -128h-29h-34q-20 0 -45 1q-25 0 -41 9.5t-25.5 23t-13.5 29.5t-4 30v167h911zM163 247q-12 0 -21 -8.5t-9 -21.5t9 -21.5t21 -8.5q13 0 22 8.5t9 21.5t-9 21.5t-22 8.5zM316 123q-8 -26 -14 -48q-5 -19 -10.5 -37t-7.5 -25t-3 -15t1 -14.5
t9.5 -10.5t21.5 -4h37h67h81h80h64h36q23 0 34 12t2 38q-5 13 -9.5 30.5t-9.5 34.5q-5 19 -11 39h-368zM336 498v228q0 11 2.5 23t10 21.5t20.5 15.5t34 6h188q31 0 51.5 -14.5t20.5 -52.5v-227h-327z" />
    <glyph glyph-name="bangzhu" unicode="&#xe600;" horiz-adv-x="1000" 
d="M896 483q-33 78 -93.5 138.5t-139.5 93.5q-81 34 -170 34t-170 -34q-78 -33 -138.5 -93.5t-93.5 -138.5q-35 -82 -35 -171t35 -170q33 -78 93.5 -138.5t138.5 -93.5q81 -35 170 -35t170 35q79 33 139.5 93.5t93.5 138.5q34 81 34 170t-34 171zM493.5 -87
q-108.5 0 -200.5 53.5t-145.5 145.5t-53.5 200.5t53.5 200.5t145.5 145.5t200.5 53.5t200.5 -53.5t145.5 -145.5t53.5 -200.5t-53.5 -200.5t-145.5 -145.5t-200.5 -53.5zM524 149h-69q-5 0 -5 -5v-69q0 -5 5 -5h69q6 0 6 5v69q0 5 -6 5zM609 543q-46 39 -119 39
q-69 0 -114 -40t-51 -108q0 -2 1.5 -4t4.5 -2h65q5 0 5 5q14 88 90 88q39 0 63 -23.5t24 -59.5q0 -19 -9 -35q-9 -17 -47 -49q-39 -34 -54 -64t-15 -94q0 -5 5 -5h59q6 0 6 5q0 46 8.5 65.5t49.5 52.5q42 35 58 65q15 29 15 63q0 61 -45 101z" />
    <glyph glyph-name="shezhi" unicode="&#xe60f;" 
d="M848 271q47 0 79.5 33t32.5 79.5t-32.5 79t-79.5 32.5h-19q-6 17 -14 33l14 14q33 32 33 78.5t-33 79.5t-79.5 33t-78.5 -33l-14 -14q-16 8 -33 14v19q0 47 -32.5 79.5t-79 32.5t-79.5 -32.5t-33 -79.5v-19q-16 -6 -33 -14l-13 14q-33 33 -79.5 33t-79 -33t-32.5 -79.5
t32 -78.5l14 -14q-8 -16 -13 -33h-20q-46 0 -79 -32.5t-33 -79t33 -79.5t79 -33h20q5 -16 13 -32l-14 -14q-32 -33 -32 -79.5t32.5 -79t79 -32.5t79.5 33l13 13q16 -7 33 -13v-20q0 -46 33 -79t79.5 -33t79 33t32.5 79v20q17 6 33 13l14 -13q32 -33 78.5 -33t79.5 32.5
t33 79t-33 79.5l-14 14q8 16 14 32h19zM789 185q17 -16 17 -39.5t-17 -39.5q-15 -16 -39 -16t-40 16l-43 43l-18 -10q-29 -16 -60 -25l-21 -6v-61q0 -23 -16.5 -39.5t-39.5 -16.5t-39.5 16.5t-16.5 39.5v61l-20 6q-32 9 -60 25l-19 10l-43 -43q-16 -16 -39.5 -16t-39.5 16
t-16 39.5t16 39.5l43 43l-10 19q-16 28 -25 60l-6 20h-61q-23 0 -39.5 16.5t-16.5 40t16.5 39.5t39.5 16h61l6 21q9 32 25 60l10 18l-43 43q-16 17 -16 40t16 40q16 15 39.5 15t39.5 -15l43 -44l19 11q28 15 60 25l20 5v61q0 24 16.5 40t39.5 16t39.5 -16t16.5 -40v-61
l21 -5q32 -10 60 -25l18 -11l43 44q16 15 40 15t39 -15q17 -17 17 -40t-17 -40l-43 -43l11 -18q15 -28 24 -60l6 -21h61q23 0 39.5 -16t16.5 -39.5t-16.5 -40t-39.5 -16.5h-61l-6 -20q-9 -32 -24 -60l-11 -19zM512.5 551q-69.5 0 -119 -49t-49.5 -118.5t49.5 -119t119 -49.5
t118.5 49.5t49 119t-49 118.5t-118.5 49zM512.5 271q-46.5 0 -79.5 33t-33 79.5t33 79t79.5 32.5t79 -32.5t32.5 -79t-32.5 -79.5t-79 -33z" />
    <glyph glyph-name="rili" unicode="&#xe612;" 
d="M711.5 521q18.5 0 32 13t13.5 31v200q0 19 -13.5 31.5t-32 12.5t-31.5 -12.5t-13 -31.5v-200q0 -18 13 -31t31.5 -13zM623 699h-222v-67h222v67zM884 699h-83v-67h86q19 0 33 -13.5t14 -32.5v-154h-844v154q0 19 14 32.5t33 13.5h87v67h-83q-48 0 -82.5 -34.5
t-34.5 -82.5v-677q0 -48 33.5 -82.5t81.5 -34.5h745q48 0 82.5 34.5t34.5 82.5v677q0 48 -34.5 82.5t-82.5 34.5zM934 -98q0 -19 -14 -33t-33 -14h-750q-19 0 -33 14t-14 33v464h844v-464zM267 166q28 0 47.5 19.5t19.5 47t-19.5 47.5t-47.5 20t-47.5 -20t-19.5 -47.5
t19.5 -47t47.5 -19.5zM511.5 166q27.5 0 47 19.5t19.5 47t-19.5 47.5t-47 20t-47 -20t-19.5 -47.5t19.5 -47t47 -19.5zM266 -79q28 0 47.5 19.5t19.5 47.5t-19.5 47.5t-47.5 19.5t-47.5 -19.5t-19.5 -47.5t19.5 -47.5t47.5 -19.5zM511.5 -79q27.5 0 47 19.5t19.5 47.5
t-19.5 47.5t-47 19.5t-47 -19.5t-19.5 -47.5t19.5 -47.5t47 -19.5zM755.5 166q27.5 0 47 19.5t19.5 47t-19.5 47.5t-47 20t-47 -20t-19.5 -47.5t19.5 -47t47 -19.5zM311.5 521q18.5 0 32 13t13.5 31v200q0 19 -13.5 31.5t-32 12.5t-31 -12.5t-12.5 -31.5v-200
q0 -18 12.5 -31t31 -13z" />
    <glyph glyph-name="yanjing" unicode="&#xe65e;" 
d="M1005 300q0 -29 -22.5 -67.5t-67.5 -78.5t-103.5 -74t-137.5 -56t-162 -22q-81 0 -159.5 21.5t-137 55.5t-104 74t-69 78.5t-23.5 68.5t23.5 68.5t69 78.5t104.5 74t137 55t159 21q84 0 163 -21t137.5 -55t103 -74t67.5 -78.5t22 -68.5zM512.5 543q-98.5 0 -168 -71
t-69.5 -172t69.5 -172t168 -71t168 71t69.5 172t-69.5 172t-168 71zM512 455q-63 0 -107 -45.5t-44 -109.5t44 -109.5t107 -45.5t107 45.5t44 109.5t-44 109.5t-107 45.5z" />
    <glyph glyph-name="football" unicode="&#xe603;" 
d="M254 667q72 56 157.5 79.5t172.5 13.5t165 -53t134.5 -114.5t80 -157t13.5 -172.5t-53 -165t-114.5 -134.5t-157 -80t-172.5 -13t-165 53t-134.5 114t-80 157t-13.5 172.5t53 165t114 135v0zM385 512l-71 -25l-72 -25q-12 -4 -16 8v2v0l-5 50l-2 15q-56 -80 -67 -177
q-4 -31 -3 -62l7 10l28 42q7 10 17 3l2 -2v0l52 -55l52 -55q3 -4 3 -8l5 -76l4 -76q0 -5 -3 -8.5t-8 -4.5q-2 0 -4 1l-48 8l-28 5q1 -1 2 -2.5t2 -1.5q82 -105 212 -136l-17 24l-30 40q-7 9 2 17q2 0 3 1v0l70 30l70 30q4 2 8 0l73 -21l72 -22q12 -4 9 -15q-1 -2 -2 -3
l-24 -43l-15 -25q58 21 107 60q55 43 91 104l-12 -4l-47 -16q-12 -4 -16 7v3v0l-7 76l-7 76q0 4 2 8v0l43 62l43 63q7 10 17 3l2 -2v0l34 -37v0q-12 106 -78 192v-8l1 -50q0 -5 -3.5 -8.5t-8.5 -3.5h-3v0l-74 17l-74 16q-5 2 -7 5l-46 60l-47 60q-7 10 3 17l2 2v0l46 20
l14 7q-30 8 -61 12q-83 9 -162 -16h2l47 -16q12 -3 8 -15q-1 -1 -1 -3l-40 -64l-39 -65q-2 -4 -7 -5v0v0zM443 450q-9 0 -11 -9l-24 -85l-24 -85q-3 -8 5 -13l73 -49l73 -49q8 -5 15 0l69 55l70 55v0q7 5 4 14l-31 82l-31 83q-3 9 -12 8l-88 -3z" />
    <glyph glyph-name="shuangseqiu" unicode="&#xe60a;" 
d="M94 516q58 47 181 82t255 31q110 -3 215 -33t170 -90q-57 37 -179.5 62t-202.5 29q-212 -2 -439 -81v0zM94 516q58 47 181 82t255 31q110 -3 215 -33t170 -90q-57 37 -179.5 62t-202.5 29q-212 -2 -439 -81v0zM94 516q58 47 181 82t255 31q110 -3 215 -33t170 -90
q-57 37 -179.5 62t-202.5 29q-212 -2 -439 -81v0zM481 202h48v-152h-48v152zM288 198h38l66 -95v95h36v-143h-38l-66 93v-93h-36v143zM193 197l39 1v-90l-3 -18l-7 -14l-10 -11l-12 -7l-14 -4l-16 -2h-17l-17 2l-11 3l-8 5l-8 5l-6 7l-4 8l-4 9l-2 10l-1 10v86h39v-92l4 -12
l7 -8l9 -6l11 -1l11 1l9 6l8 8l3 12v92zM100 12h43v-118h81v-30h-124v148zM588 -38h-58v-113h-46v113h-46v37h150h149v-37h-46v-113h-45v113h-58zM649 24q-41 0 -70.5 29.5t-29.5 70.5t29.5 70t70.5 29t70 -29t29 -70t-29 -70.5t-70 -29.5v0zM332 -160q-41 0 -70.5 29
t-29.5 70t29.5 70.5t70.5 29.5t70 -29.5t29 -70.5t-29 -70t-70 -29v0zM841 -154q-41 0 -70 29t-29 70.5t29 70.5t70 29t70.5 -29t29.5 -70.5t-29.5 -70.5t-70.5 -29v0zM473 639h18l28 72h36l7 18h-54zM500 639h9h21q9 0 20 -1l9 23h2q11 0 17 -6.5t4 -15.5q0 -1 -1 -3
q21 -1 41 -4q1 5 2 9q2 25 -14.5 43t-40.5 18h-45zM465 638l39 102h36l7 18h-54l-47 -121q9 1 19 1zM533 587q-27 0 -54 -2l-22 -57h51l20 53h31q8 0 16 2q-24 3 -42 4zM470 585q-9 -1 -18 -1l-11 -29h18zM408 633q0 3 1 6q2 9 10.5 15.5t19.5 6.5h8l16 41h-32
q-25 0 -44 -18t-21 -43q0 -6 1 -13q21 3 41 5zM824 406v4h-1zM879 356v24h7q4 -1 6 8l5 21h34l-7 -37q-3 -18 -23 -16h-22v0zM215 442v31h123v-28l-45 -120l20 -48q1 -8 10 -7h14v-27h-33q-14 0 -18 13l-10 22l-9 -22q-4 -14 -21 -14h-29v28h9q8 -1 9 6l20 53l-42 98h37
l23 -56l24 71h-82v0zM145 377l20 64h-76v31h117v-27l-43 -114l23 -56q2 -6 8 -5h13v-28h-31q-14 0 -17 12l-13 31l-12 -31q-6 -13 -19 -12h-25v28h10q3 -1 4 3l23 61l-37 92h34l21 -49v0zM387 422v30h11q5 -1 10 5l19 19h46l-9 -10h171v-29l-30 -31h31v-66q3 -35 -34 -31
h-174v-31q-2 -10 9 -8h200v-29h-215q-42 -4 -35 29v136h168l28 31h-142l-11 -10q-4 -6 -20 -5h-23v0zM428 338h63v40h-63v-40v0zM595 348v30h-64v-40h50q8 -1 11.5 1.5t2.5 8.5v0zM780 453h58v19h36v-19h15q7 0 8 6v9h32v-19q0 -27 -33 -26h-23v-78h36l7 -71q0 -9 7 -8h7
v-27h-21q-23 -1 -24 18l-8 70h-4v-59q1 -16 -5 -23t-19 -6h-23v27h5q6 0 6 6v55h-4l-13 -67q-4 -20 -23 -20h-21v27h3q6 -1 8 7l14 71h36v77h-57v31v0zM711 439h-31v29h93v-28l-27 1v-73h26v-27h-26v-74h26v-27h-93v26h32v75h-31v28h31v70v0zM879 356v25h7q4 -1 6 7l5 21h34
l-7 -37q-3 -18 -23 -16h-22v0zM828 357h-24q-20 -2 -22 17l-6 34h34l5 -20q0 -8 7 -6h6v-25v0zM776 198h38l66 -95v95h36v-143h-38l-65 93v-93h-37v143z" />
    <glyph glyph-name="xingyundazhuanpan" unicode="&#xe60e;" 
d="M511 -140q-90 0 -172 35t-141 94t-94 141t-35 171.5t35 171.5t94 141t141 94t172 35t171.5 -35t140.5 -94t94 -141t35 -171.5t-35 -171.5t-94 -141t-140.5 -94t-171.5 -35v0zM795 585l-284 -284v402q-81 0 -154 -31t-129 -86l283 -285h-402q0 -81 31 -154t86 -128
l285 282v-401v0q81 0 154 30.5t128 85.5l-282 285h401v0q0 82 -31 155.5t-86 128.5v0zM795 585z" />
    <glyph glyph-name="jiantou" unicode="&#xe635;" 
d="M768 293l-460 448l-52 -51l408 -397l-408 -398l52 -50z" />
    <glyph glyph-name="wo" unicode="&#xe6a3;" 
d="M672 666q-67 71 -162 71t-162 -71q-67 -69 -67 -167t67 -168q17 -19 39 -33q-87 -29 -148 -90q-117 -116 -118 -326q0 -12 9 -21t22 -9v0q13 0 22 8.5t9 21.5q0 237 162 330q36 21 79.5 33t60.5 13.5t27 1.5v0q4 0 8 1q89 4 152 70q67 70 67 168t-67 167zM510 322
q-69 0 -118 52t-49 125t49 124.5t118 51.5t118 -51.5t49 -124.5t-49 -125t-118 -52zM762 237q-11 6 -23.5 3t-19 -14t-3.5 -23.5t14 -18.5q3 -1 8 -5.5t18.5 -19t24.5 -33.5q57 -94 57 -248q0 -12 9 -21t22 -9t22 9t9 21q0 77 -14.5 142.5t-32.5 102t-41 65.5t-33.5 37
t-16.5 12z" />
    <glyph glyph-name="icon5" unicode="&#xe61a;" 
d="M829 617q-86 86 -201.5 116.5t-231 0t-201.5 -116.5t-116.5 -201.5t0 -230.5t116.5 -201q65 -65 148.5 -98.5t168.5 -33.5t168.5 33.5t148.5 98.5q86 86 116.5 201t0 230.5t-116.5 201.5zM903 277q-68 7 -133 -12.5t-118 -64.5l-100 100l256 256q51 -58 75 -130.5
t20 -148.5zM652 121l116 -117q-78 -67 -178 -88q-11 115 62 205zM691 160q90 73 205 62q-20 -100 -88 -178zM768 596l-256 -256l-100 100q45 53 64.5 118.5t12.5 132.5q76 4 148 -20t131 -75zM333 440q-90 -73 -205 -62q20 100 88 178zM256 596q78 68 178 88
q11 -115 -62 -205zM121 323q68 -7 133 12.5t118 64.5l100 -100l-256 -256q-51 59 -75 131t-20 148zM256 4l256 257l100 -101q-45 -53 -64.5 -118t-12.5 -133q-76 -4 -148 20t-131 75z" />
    <glyph glyph-name="jiantou1" unicode="&#xe601;" 
d="M376 279q-9 -9 -22.5 -9t-22.5 9v0q-9 9 -9 22.5t9 22.5l317 317q9 9 22.5 9t22.5 -9v0q9 -9 9 -22.5t-9 -22.5zM693 4q9 -9 9 -22.5t-9 -22.5v0q-9 -9 -22.5 -9t-22.5 9l-317 317q-9 9 -9 22.5t9 22.5v0q9 9 22.5 9t22.5 -9z" />
    <glyph glyph-name="iconfont17shifouxianshimimafou" unicode="&#xe7a4;" horiz-adv-x="1442" 
d="M714 37q103 0 175.5 74.5t72.5 180.5t-72.5 181t-175 75t-175 -75t-72.5 -181t72.5 -180.5t174.5 -74.5v0zM714 488q78 0 133 -57.5t55 -138.5t-55 -138.5t-132.5 -57.5t-132.5 57.5t-55 138.5t55 138.5t132 57.5v0zM4 289q89 -228 284 -364.5t432.5 -136.5t432.5 136.5
t285 364.5l4 11l-4 11q-90 228 -285 364.5t-432.5 136.5t-432.5 -136.5t-284 -364.5l-4 -11l4 -11v0zM721 752q216 0 394 -123t263 -329q-85 -206 -263 -329t-394 -123t-394.5 123t-262.5 329q84 206 262.5 329t394.5 123v0zM721 752z" />
    <glyph glyph-name="guangbo" unicode="&#xe610;" 
d="M491 714l-314 -192h-100q-32 0 -54.5 -23t-22.5 -54v-290q0 -31 22.5 -54t54.5 -23h100l314 -192q16 0 27.5 11t11.5 27v752q0 16 -11.5 27t-27.5 11v0zM842 -94q-13 0 -22.5 9t-9.5 22.5t9 22.5q69 69 105 159t36 181t-36 181t-105 159q-9 9 -9 22.5t9.5 22.5t22.5 9
t23 -9q78 -78 118.5 -180t40.5 -205t-40.5 -205t-118.5 -180q-10 -9 -23 -9v0zM697 93q-13 0 -22.5 9t-9.5 22.5t9 22.5q64 64 64 153t-64 153q-9 9 -9 22.5t9.5 22.5t22.5 9t23 -9q82 -82 82 -198t-82 -198q-10 -9 -23 -9v0zM697 93z" />
    <glyph glyph-name="tianjia" unicode="&#xe6e7;" horiz-adv-x="1025" 
d="M973 351h-410v410q0 21 -15 36t-36 15t-36 -15t-15 -36v-410h-410q-21 0 -36 -15t-15 -36t15 -36t36 -15h410v-410q0 -21 15 -36t36 -15t36 15t15 36v410h410q21 0 36 15t15 36t-15 36t-36 15v0z" />
    <glyph glyph-name="yuandian" unicode="&#xe6b6;" 
d="M512 747q91 0 174 -35.5t142.5 -95t95 -142.5t35.5 -174t-35.5 -174t-95 -142.5t-142.5 -95t-174 -35.5t-174 35.5t-142.5 95t-95 142.5t-35.5 174t35.5 174t95 142.5t142.5 95t174 35.5z" />
    <glyph glyph-name="qingkong" unicode="&#xe608;" 
d="M741 580v100q0 27 -14.5 46.5t-34.5 19.5h-361q-20 0 -35 -19.5t-15 -46.5h1v-100h-202v-66h69v-600q0 -26 18.5 -45t44.5 -19v0h598v66h-597v598h597v-664q27 0 45.5 19t18.5 45v600h69v66h-202zM677 580h-332v100h332v-100zM478 414h67v-398h-67v398zM312 414h67v-398
h-67v398zM644 414h67v-398h-67v398z" />
    <glyph glyph-name="icon" unicode="&#xe6d5;" horiz-adv-x="1180" 
d="M822 531q-59 0 -101 -41.5t-42 -100t42 -100t101 -41.5h272v283h-272zM1132 173h-310q-90 0 -154 63.5t-64 153t64 153t154 63.5h310q16 0 27 -11t11 -26v-359q0 -15 -11 -26t-27 -11v0zM912 -106h-736q-64 0 -109 44.5t-45 107.5v687q0 63 45 108t109 45h736
q63 0 108.5 -45t45.5 -108v-149q0 -15 -11 -26t-27 -11t-27 11t-11 26v149q0 32 -23 55t-55 23h-736q-33 0 -56 -23t-23 -55v-687q0 -32 23 -55t56 -23h736q32 0 55 23t23 55v160q0 16 11 27t27 11t27 -11t11 -27v-160q0 -63 -45.5 -107.5t-108.5 -44.5zM803 302
q-16 0 -27 11t-11 26v101q0 16 11 27t27 11t27 -11t11 -27v-101q0 -15 -11 -26t-27 -11v0z" />
    <glyph glyph-name="yaoyiyao" unicode="&#xe611;" horiz-adv-x="1351" 
d="M937 823l-289 68q-71 17 -132.5 -21.5t-78.5 -108.5l-142 -605q-17 -71 21.5 -133t109.5 -78l289 -68q71 -17 132.5 21.5t78.5 108.5l142 605q17 71 -21.5 133t-109.5 78v0zM967 536l-98 -415q-8 -35 -39 -54.5t-67 -10.5l-301 71q-35 8 -54.5 39t-10.5 66l97 415
q9 36 40 55t66 10l301 -70q36 -9 55 -40t11 -66v0zM967 536zM233 481q7 59 55 95l-36 47q-66 -51 -77 -134t40 -149l46 35q-36 47 -28 106v0zM233 481zM87 504q11 86 80 139l-52 67q-96 -74 -112 -195t58 -218l68 53q-53 68 -42 154v0zM87 504zM1072 237l37 -45
q64 53 72 136q7 84 -46 148l-45 -37q38 -46 32.5 -105.5t-50.5 -96.5v0zM1072 237zM1190 170l55 -66q94 78 105 199q11 122 -67 216l-66 -55q56 -66 48 -152.5t-75 -141.5v0zM1190 170z" />
    <glyph glyph-name="chilun" unicode="&#xe624;" 
d="M938 475q-23 2 -52 13.5t-39 33.5q-15 34 29 97l13 17l-124 131l-19 -14q-20 -16 -51.5 -28.5t-52.5 -2.5q-31 15 -34 90l-1 25h-196l-1 -25q-3 -75 -34 -90q-20 -10 -51.5 2.5t-52.5 28.5l-19 14l-123 -131l12 -17q45 -63 29 -97q-10 -22 -38.5 -33.5t-52.5 -13.5
l-24 -2v-80v0v-97l24 -2q24 -3 52.5 -14.5t38.5 -32.5q16 -34 -29 -97l-12 -17l123 -131l19 14q21 16 52.5 28.5t51.5 2.5q18 -9 30 -35.5t13 -54.5v-25h181v25q1 28 12.5 54.5t29.5 35.5q21 10 52.5 -2.5t51.5 -28.5l19 -14l124 131l-13 17q-44 63 -29 97q10 22 39 33.5
t52 13.5l24 2v97v0v80l-24 2v0zM923 333q-1 -1 -15 -3.5t-20 -4t-19.5 -5.5t-22 -8t-18.5 -10t-17 -14.5t-12 -18.5q-9 -16 -5.5 -39t13 -43.5t26.5 -47.5l-78 -78q-1 1 -9.5 6t-11.5 7t-12 7t-14 7t-13.5 5.5t-14.5 5t-15 3t-15.5 1t-14.5 -2.5t-15 -5q-26 -12 -41.5 -45.5
t-21.5 -77.5h-96q-5 44 -21 77.5t-41 45.5q-57 27 -139 -23l-62 66q47 76 21 131q-4 10 -11.5 18.5t-17.5 14.5t-18 10t-21.5 8t-20 5.5t-20 4t-15.5 3.5v103q2 1 15.5 3.5t20 4t20 5.5t21.5 8t18 10t17.5 14.5t11.5 18.5q26 55 -21 131l62 66q82 -50 139 -23q20 9 33 25.5
t18 33t7 31.5t1 25l-1 10h104q12 -103 59 -125q56 -27 138 23l63 -66q-47 -76 -22 -131q5 -10 12 -18.5t17 -14.5t18.5 -10.5t22 -8t19.5 -5t19.5 -4t15.5 -3.5v-103v0zM501 580q-82 0 -140 -58t-58 -140t55.5 -137t137.5 -55t138 56t56 138q0 83 -54 139.5t-135 56.5v0z
M496 229q-64 0 -109.5 45.5t-45.5 110t45.5 110t110 45.5t110 -45.5t45.5 -110t-45.5 -110t-110.5 -45.5v0zM496 229z" />
    <glyph glyph-name="dagou" unicode="&#xe602;" horiz-adv-x="1038" 
d="M1014 753l-84 69q-6 5 -14.5 4t-13.5 -7l-484 -592l-312 255q-6 5 -14.5 4t-13.5 -7l-69 -84q-5 -7 -4 -15t7 -14l324 -264q1 -2 3 -4l84 -68q7 -6 15 -5t14 7l565 693q5 6 4.5 14.5t-7.5 13.5v0zM1014 753z" />
    <glyph glyph-name="asmkticon0253" unicode="&#xe80f;" 
d="M880 395q-70 104 -166 161.5t-202 57.5t-202 -57.5t-166 -161.5q-7 -11 0 -21q70 -105 166 -162.5t202 -57.5t202 57.5t166 161.5q8 11 0 22zM512 192q-93 0 -179 50t-150 142q64 92 150 142t179 50t179 -50t150 -142q-64 -92 -150 -142t-179 -50zM512 384zM397 384
q0 48 33.5 81.5t81.5 33.5t81.5 -33.5t33.5 -81.5t-33.5 -81.5t-81.5 -33.5t-81.5 33.5t-33.5 81.5z" />
    <glyph glyph-name="asmkticon0254" unicode="&#xe810;" 
d="M512 621q-110 0 -208.5 -60.5t-172.5 -165.5q-7 -11 0 -22q74 -105 172.5 -165.5t208.5 -60.5t208.5 60.5t172.5 165.5q7 11 0 22q-74 105 -172.5 165.5t-208.5 60.5zM512 224q-66 0 -113 47t-47 113t47 113t113 47t113 -47t47 -113t-47 -113t-113 -47zM512 384zM416 384
q0 40 28 68t68 28t68 -28t28 -68t-28 -68t-68 -28t-68 28t-28 68z" />
    <glyph glyph-name="icon1101" unicode="&#xe60c;" 
d="M980 566q-22 22 -59 22l-103 1l-44 103h49q17 0 23 -7q10 -9 10 -20v-59h52v59q0 32 -25 57q-22 22 -60 22h-70l-17 40q-15 33 -49 46t-67 -3l-167 -83h-311q-53 0 -87 -34q-36 -36 -36 -84v0v-565q0 -53 36 -89q39 -39 87 -39h779q32 0 59 27q25 25 25 63v143v247v96
q0 32 -25 57zM643 780q13 6 26 2q13 -5 19 -18l73 -175l-497 3zM92 673q18 19 50 19h207l-200 -100l-78 1v32q0 27 21 48zM953 218h-227q-27 0 -50 24q-21 21 -21 52q0 27 21 48q18 19 50 19h227v-143zM726 413q-53 0 -87 -34q-36 -36 -36 -85q0 -53 36 -89q39 -39 87 -39
h227v-143q0 -17 -9 -26q-13 -13 -23 -13h-779q-27 0 -50 24q-21 21 -21 53v480l850 -5q16 0 23 -7q9 -9 9 -20v-96h-227z" />
    <glyph glyph-name="chongzhi" unicode="&#xe606;" 
d="M714 794h-98l-33 -61q-47 -88 -58 -117h-2q-20 46 -90 178h-105l115 -198h-127v-78h156v-108h-156v-79h156v-178h98v178h150v79h-150v108h150v78h-123zM888 681h-145v-54h145q25 0 43.5 -18t18.5 -43v-485q0 -25 -18.5 -43.5t-43.5 -18.5h-750q-26 0 -44 18.5t-18 43.5
v484q0 26 18 44t44 18h144v54h-144q-48 0 -82 -34t-34 -82v-484q0 -48 34 -81.5t82 -33.5h750q48 0 81.5 33.5t33.5 81.5v484q0 48 -33.5 82t-81.5 34z" />
    <glyph glyph-name="cha" unicode="&#xe6b9;" 
d="M865 532q-29 72 -84.5 127t-127.5 85q-69 28 -144.5 28t-144.5 -28q-72 -30 -127.5 -85t-84.5 -127q-28 -70 -28 -145t28 -145q29 -72 84.5 -127t127.5 -85q69 -28 144.5 -28t144.5 28q72 30 127.5 85t84.5 127q28 70 28 145t-28 145zM701 188.5q-10 -9.5 -23.5 -9.5
t-23.5 9l-147 147l-144 -145q-10 -10 -24 -10t-23.5 10t-9.5 24t9 23l145 145l-142 142q-10 10 -10 24t10 23.5t23.5 9.5t23.5 -9l142 -143l144 144q10 10 24 10t23.5 -9.5t9.5 -23.5t-9 -24l-144 -144l146 -146q10 -10 10 -24t-10 -23.5z" />
    <glyph glyph-name="jianqu" unicode="&#xe6ff;" 
d="M934 343h-844q-16 0 -27.5 12t-11.5 29t11.5 29t27.5 12h845q16 0 27.5 -12t11.5 -29q-1 -17 -12.5 -29t-27.5 -12v0z" />
    <glyph glyph-name="tongzhi" unicode="&#xe60d;" 
d="M803 583l-42 74l220 127l43 -73l-221 -128v0zM637 -124q-14 1 -24 9h-1l-385 289h-227v425h227l385 289v-0.5v-0.5q11 9 25 9q18 0 30.5 -12.5t12.5 -30.5v-934v-1q0 -17 -12.5 -29.5t-30.5 -12.5v0v0zM765 429h255v-85h-255v85zM1020 39l-41 -77l-214 134l41 77z" />
    <glyph glyph-name="touzhu1" unicode="&#xe63b;" 
d="M989 413q-10 178 -133 307l10 -9l-38 37v-1q-63 57 -142.5 89.5t-167.5 34.5l12 1h-53v-1q-178 -10 -307 -133l9 10l-37 -37l1 -1q-57 -63 -89.5 -142.5t-34.5 -167.5v13v-53v0q10 -179 133 -307l-10 9l37 -38l1 1q63 -57 142.5 -89.5t167.5 -34.5h-13h53v1
q179 9 308 132l-10 -10l38 38h-1q57 63 89.5 142.5t34.5 168.5v-13v53v0v0zM936 413h-356q-5 14 -14 25l262 235q104 -117 108 -273v13zM790 710l-251 -252q-13 7 -28 8l19 352q157 -10 270 -117zM477 818v-356q-15 -5 -26 -15l-234 263q117 104 273 108h-13zM180 673
l251 -252q-6 -12 -7 -26l-352 18q10 157 117 270zM72 360h356q2 -5 3 -9l-251 -251q-104 116 -108 273v-13zM217 62l252 252l8 -4v-355q-156 9 -270 117zM530 -45v355q5 2 9 4l251 -252q-116 -104 -273 -108zM828 100l-252 251q2 4 4 9h356q-10 -157 -118 -270z" />
    <glyph glyph-name="nongyeyinhang" unicode="&#xe613;" horiz-adv-x="1033" 
d="M480 581h55q29 0 35 9q4 8 4 13v27v39v154q0 73 -2 73h-112q-2 0 -2 -36v-155q0 -12 -1 -34t-1 -39.5t2 -33.5q4 -17 22 -17zM642 887v-162q0 -14 1.5 -47t1 -58t-4.5 -47q-2 -15 -22.5 -18t-42 0.5t-35.5 0.5q-8 -3 -11.5 -12t-3.5 -17t1 -21.5t1 -16.5v-103
q3 7 10 10.5t12.5 3.5t17 -0.5t13.5 -0.5q9 0 28 -1.5t34.5 -1.5t27.5 3q17 4 17 24v40v65v229q108 -50 173 -152t65 -221q0 -99 -46.5 -187.5t-127.5 -146.5t-179 -70v122v60v30q0 1 -0.5 4t-0.5 6t1 5v5q0 1 2 1l4 2q3 1 35.5 -1t56.5 3t17 22q-3 3 -3 13t1.5 22t1.5 16
v107q1 -8 -2 -13t-10.5 -6.5t-12 -2t-15 0t-11.5 0.5q-9 0 -27 1t-33 1t-28 -2q-8 0 -13 -3.5t-6.5 -11.5t-2 -12.5t0 -15.5t0.5 -13v-103h-17q-1 1 -3 1q-4 1 -4 10v28v53q0 6 0.5 16.5t0.5 18.5t-1 15t-6 11.5t-13 5.5t-14.5 1t-16 -0.5t-12.5 -0.5q-8 0 -25.5 -1.5
t-32.5 -1.5t-28 3q-4 0 -7 5t-3 12v-120q0 -4 -0.5 -12.5t-0.5 -16t1 -14.5t5 -11t11 -5t12 -1.5t14 0t11 0.5h54q9 0 8 -17v-4v-215q-99 14 -180.5 72.5t-128 147t-46.5 187.5q0 119 66 221t174 152v-336q0 -20 21 -24h69q3 0 16.5 1t22 1t18.5 -3.5t13 -11.5v118
q0 4 0.5 12.5t0.5 12.5t-1.5 10.5t-4 9.5t-8 5.5t-12.5 3.5q-8 1 -17 1t-20 -0.5t-17 -0.5q-23 0 -28.5 10t-5.5 39v280q-118 -28 -210.5 -107.5t-140 -191.5t-39.5 -234q7 -108 59 -203.5t131 -160t183.5 -95.5t211.5 -16q129 18 234 96t161.5 196.5t49.5 249.5
q-10 165 -119 296.5t-271 171.5v0z" />
    <glyph glyph-name="shaixuan" unicode="&#xe616;" 
d="M834 691q13 14 22 37.5t9 43.5v0q0 51 -36 87t-88 36h-617v0q-51 0 -87.5 -36t-36.5 -87q0 -45 29 -80q2 -3 5 -6l249 -283v-297q0 -15 12 -26l1 -1l221 -199q10 -8 22 -8q14 0 24 10t10 24v4v484l258 292q2 2 3 5zM782 737q-2 -3 -3 -4l-257 -291q-19 -20 -19 -48v-412
l-150 141v280q0 28 -20 48l-247 282q-1 2 -3 4q-13 15 -13 34v1q0 22 16 37.5t38 15.5h617q23 0 38.5 -15.5t15.5 -37.5q0 -20 -13 -35zM620 349q0 -14 10.5 -24t24.5 -10h333h1q14 0 24 10t10 24t-10 24t-24 10h-1h-333v0q-14 0 -24.5 -10t-10.5 -24zM988 218h-333h-2
q-14 0 -24.5 -10t-10.5 -24.5t10.5 -24.5t24.5 -10h2h333q14 1 24 11t10 23.5t-10 23.5t-24 11zM988 52h-333v0q-14 0 -24.5 -10t-10.5 -24t10.5 -24t24.5 -10h333q15 0 25 10t10 24t-10 24t-24 10h-1z" />
    <glyph glyph-name="bifen" unicode="&#xe63d;" 
d="M928 -64h-832q-40 0 -68 28t-28 68v704q0 40 28 68t68 28h832q40 0 68 -28t28 -68v-704q0 -40 -28 -68t-68 -28zM96 768q-13 0 -22.5 -9.5t-9.5 -22.5v-704q0 -13 9.5 -22.5t22.5 -9.5h832q13 0 22.5 9.5t9.5 22.5v704q0 13 -9.5 22.5t-22.5 9.5h-832zM491 789h42v-810
h-42v810zM401 237v-22q0 -10 -11 -10h-230q0 10 4 32q7 18 30 49q12 15 60 55q55 44 81 77q21 28 21 53q0 26 -19 45t-49 19q-32 0 -51 -19q-16 -16 -19 -42q0 -5 -3.5 -8t-7.5 -3l-24 2q-4 0 -7 4t-1 9q6 43 34 68q35 28 83 28q54 0 83.5 -30t29.5 -73q0 -25 -8 -42
q-6 -12 -34 -45q-20 -22 -71 -64q-44 -37 -51 -47q-3 -4 -10 -12t-9 -11h168q11 -4 11 -13zM651 386q0 66 12 105q14 41 41 62t66 21q29 0 51 -13q25 -14 37 -34q14 -25 23 -56q9 -28 9 -87q0 -63 -13 -105q-12 -39 -41 -61q-27 -22 -66 -22q-54 0 -83 39q-36 45 -36 151z
M698 386q0 -92 21 -119q23 -30 51 -30q31 0 51 30q22 32 22 119q0 92 -22 120q-23 29 -53 29t-49 -25q-21 -34 -21 -124z" />
    <glyph glyph-name="guangzhoushishangyeyinhang" unicode="&#xe62a;" 
d="M76 406q0 6 1 15.5t7.5 38.5t15.5 57t27.5 66.5t42 71t60.5 65.5t81 55.5t106 35.5t134 12q8 -1 21 -2.5t51.5 -12t74 -26t80 -48t78 -74.5t59.5 -108.5t33 -147.5h-211q-5 0 -14 0.5t-36 10.5t-53 28t-61 58.5t-64 95.5q-4 -7 -12.5 -19t-35.5 -43t-53.5 -56t-65 -47
t-73.5 -26h-193zM71 379l215 -5q35 0 64 -27h-274zM81 323h313q27 -10 37 -34l-343 -3zM98 259h362q2 -2 5.5 -6t12.5 -19t13.5 -32.5t9 -47.5t-0.5 -64q1 -1 2.5 -2t6 -3t8 -2.5t7.5 1.5t5 9q0 2 -0.5 5.5t-1 15t-1 22.5t0 26t1.5 28t4 26t7.5 22.5t11 15t15.5 5.5l362 3
l-22 -49h-125h-4.5t-10 -2t-13.5 -7.5t-10 -19.5t-3 -35q0 -5 -0.5 -13t-5 -31t-12 -43.5t-24 -45t-39 -41t-59.5 -25.5t-83 -4q-1 2 -13.5 0t-33.5 2t-45.5 9t-50 19.5t-45.5 33.5t-32.5 52t-12.5 75q0 2 0.5 5t0.5 12t-1.5 16t-5 16.5t-9 13.5t-14.5 7.5t-22 -2.5h-118z
M588 289q0 1 1 3.5t5.5 9.5t11 10t18.5 6.5t27 -0.5l287 2l-5 -29zM664 345q1 3 4.5 8.5t13.5 14.5t21 9l240 -5l-5 -30z" />
    <glyph glyph-name="zhongguominshengyinhang" unicode="&#xe62b;" 
d="M885 361q-20 26 -55.5 47t-71.5 33t-69.5 20.5t-54.5 11.5l-21 3l81 49l-179 100l-169 -96l140 -79q181 2 273 -92q16 -17 24 -29q11 -31 5 -55.5t-18 -43.5t-34.5 -33.5t-45.5 -25t-50.5 -17.5t-50 -11t-43 -6.5t-30 -3t-11.5 -0.5q-53 -6 -102 8t-79 34.5t-55.5 48.5
t-33 39.5t-10.5 18.5v0l-116 -4q21 -44 57 -77.5t76.5 -53t90 -31.5t94.5 -16t94 -2.5t84.5 5t70 9t46 8t17.5 4.5v0q52 16 88 38t53 43.5t23.5 45.5t5 41.5t-8 35.5t-10 24t-5.5 9v0zM515 483l-80 41l76 49l80 -43zM525 717q-31 4 -72 2t-84 -5.5t-86 -16t-78 -29.5
t-60.5 -46.5t-32.5 -66.5q-9 -44 16.5 -82.5t72.5 -64t100.5 -41.5t105.5 -21l-81 -48q79 -45 177 -100l161 94l-161 86q-8 5 -42.5 0.5t-35.5 -4.5q-46 -1 -95.5 27t-77.5 73t-11 86q15 46 60 77t102.5 43t122 8.5t120 -22t96.5 -54t51 -81.5h124q-67 164 -392 186z
M510 336l81 -44l-84 -45l-77 45z" />
    <glyph glyph-name="jiagezoushi" unicode="&#xe625;" 
d="M571 56h117v254h-117v-254zM63 -3v-59h898v59h-898v0zM219 270h-117v-214h117v214v0zM805 56h117v410h-117v-410zM336 56h117v351h-117v-351v0zM141 310l222 250l262 -120l21 29l185 206l91 -92v196h-195l72 -73l-182 -201l-265 122l-34 -46l1 -1l-217 -243zM141 310z
" />
    <glyph glyph-name="jinrongjielogo-" unicode="&#xe729;" horiz-adv-x="1154" 
d="M485 896h177l5 -2.5t8 -10t3 -21.5q-1 -12 -1 -34.5t1 -39.5v-17h59q3 0 7.5 -2t13 -12.5t8.5 -26.5v-323l-136 -82v205q-1 2 -3.5 4.5t-10.5 8.5t-15.5 10.5t-19 6.5t-22.5 0t-23 -12t-23 -27v-205l-137 97v310q1 5 4.5 12t15.5 20t28 15q12 2 24.5 2t24.5 -2l-1 101
q3 22 13 25zM1155 39l-89 -153q-15 -14 -37 3q-10 7 -29.5 18t-34.5 19l-14 8l-30 -51l-1.5 -1.5t-6.5 -4.5t-10.5 -4t-14 0t-17.5 6q-14 7 -84 47.5t-133 77.5l-63 37l-3 158l178 -102q2 0 5.5 1t12.5 4.5t16.5 8t15.5 13.5t11.5 19.5t1 26t-11.5 33.5q-12 6 -34 18.5
t-46 26.5t-46.5 27t-37 21.5l-14.5 8.5l153 71l268 -156q2 -1 3.5 -3.5t6.5 -10t7 -14.5t3 -17.5t-4 -19.5q-11 -34 -38 -56l102 -36zM95 -124l-94 149q-5 20 19 33q12 5 31 17t33 21l14 9l-32 50q-1 3 -2 8t3.5 17t18 21.5t82 52.5t130 81t61.5 39l142 -72l-174 -109
q0 -2 -1 -5.5t-2 -13.5t-0.5 -18.5t4.5 -19.5t11.5 -19t22.5 -13t35 -5q17 11 60.5 38t78.5 48.5l35 21.5l-9 -168l-263 -165q-5 -1 -12.5 -2t-25 2.5t-27.5 16.5q-25 26 -31 61l-80 -74l-6 -2t-11.5 -2.5t-10.5 2.5z" />
    <glyph glyph-name="jinrongjielogo-1" unicode="&#xe72a;" 
d="M7 410q0 7 1.5 18t8.5 45t18 67t32 77.5t48.5 82t71 76t95 65t123.5 42t156 13.5q5 -1 14.5 -2t39 -7t58 -15t68.5 -28t74.5 -43t71 -62t63.5 -83.5t47 -110t26 -138.5l-246 1q-5 -1 -16 0t-42.5 12.5t-62 32.5t-70.5 68t-74 112q-5 -8 -15 -22t-41 -50.5t-62.5 -65
t-76 -54.5t-85.5 -31h-225v0zM1 379l251 -6q40 0 75 -31h-320zM13 313h365q31 -11 43 -40l-400 -2zM32 239h423q1 -1 3 -3.5t8.5 -11t11 -19t11 -27.5t9 -36t5 -45t-1.5 -55q1 -1 3 -2.5t7 -4t9.5 -3t8.5 2.5t6 10q0 2 -0.5 6.5t-1.5 18t-1 26v30t1.5 32.5t5 30.5t8.5 26.5
t13 17.5t18 6.5l422 3l-26 -57h-145q-2 0 -5.5 0.5t-12.5 -2t-15.5 -9t-11 -23t-4.5 -40.5q0 -6 -0.5 -15.5t-5 -36t-13.5 -50.5t-28.5 -52.5t-46 -47.5t-69.5 -29.5t-97 -5.5q0 1 -9 -0.5t-25 1t-36.5 4.5t-43 10t-45 17.5t-43 27t-36 39.5t-24.5 54t-9 70q0 1 0.5 3t0.5 9
t-0.5 13t-1.5 15.5t-4 15.5t-7.5 13t-11 9.5t-15.5 4t-20 -2.5h-137zM603 273q1 2 2 5t6 11t13 11.5t21.5 8t31.5 -0.5l334 3l-5 -35zM692 339q2 4 5.5 10.5t15.5 16.5t24 10l280 -5l-5 -35z" />
    <glyph glyph-name="jinrongjielogo-2" unicode="&#xe72d;" horiz-adv-x="1048" 
d="M524 -128q2 95 63 161.5t145 66.5q-86 0 -147 69t-61 166q-1 -97 -62 -166t-147 -69v8q0 97 61 166t147 69l1 -6v6q86 0 147 -69t61 -166v-16q0 -74 -37.5 -134t-97.5 -86h450l-523 1024l-524 -1024h450q-60 26 -97.5 86t-37.5 134v8q84 0 145 -66.5t63 -161.5h1v0z" />
    <glyph glyph-name="jinrongjielogo-3" unicode="&#xe731;" horiz-adv-x="1025" 
d="M465 894l23 2h48l21 -2v-314l-2 -2l-2 -5h-2l-2 -2l-7 -2h-60l-6 2l-3 2h-4v5l-2 2l-2 8v306v0zM682 386v-153l-2 -4l-2 -2l-2 -4h-5l-4 -2l-9 -2h-90v-241l19 4l20 2l17 6l17 5l9 2l8 4l17 6l18 9l15 9l17 8l15 9l13 11l15 11l28 23l13 13l11 13l12 15l11 13l11 15l9 15
l8 17l9 16l8 17l7 17l11 34l6 18l2 19l4 17l2 20l3 38l-3 30l-1 15v15l-7 30l-8 30l-5 13l-4 13l-11 28l-15 26l-13 26l-17 21l-19 24l-20 21l-21 20l-22 17l-23 17l-26 15l-26 13v-352l-2 -4l-2 -3l-2 -4l-5 -2h-4l-9 -2h-127l-4 -5v149l2 4l2 4l5 2h58l8 2l7 3l4 2l5 6
v327l64 -19l19 -7l22 -8l19 -11l20 -9l17 -10l19 -13l17 -11l17 -13l15 -15l18 -15l15 -15l28 -30l13 -17l13 -18l10 -19l11 -17l22 -39l8 -19l7 -22l13 -41l6 -21l4 -22l3 -21l4 -24v-71l-2 -26l-2 -25l-5 -26l-6 -24l-7 -26l-8 -23l-9 -22l-11 -24l-10 -21l-13 -22
l-13 -21l-15 -20l-30 -38l-35 -35l-19 -15l-19 -15l-20 -15l-21 -13l-22 -13l-22 -10l-23 -11l-22 -9l-25 -8l-24 -7l-24 -6l-26 -4l-25 -3l-26 -2l-26 -2l-52 4l-26 2l-25 5l-26 6l-24 7l-23 8l-24 9l-22 11l-21 10l-22 13l-21 13l-20 15l-19 15l-19 15l-17 18l-18 17
l-17 19l-15 19l-13 20l-13 21l-13 22l-10 21l-11 24l-9 22l-8 23l-7 26l-6 24l-5 26l-4 25l-2 26v50l2 21l2 24l4 21l9 43l13 41l9 22l8 19l9 20l11 19l11 17l12 19l14 18l12 17l13 15l15 15l15 15l15 15l69 52l19 10l20 9l19 11l20 8l19 7l64 19v-327l2 -4l3 -2l6 -3l7 -2
l6 -2h58l5 -2l4 -4v-153l-4 5h-127l-9 2h-4l-3 2l-4 4l-2 2v4l-2 7v346l-26 -13l-24 -15l-47 -34l-21 -20l-20 -21l-17 -24l-17 -23l-15 -24l-13 -26l-7 -13l-4 -15l-11 -28l-6 -28l-7 -30l-2 -15v-15l-2 -30v-19l2 -20l2 -17l2 -19l5 -20l4 -17l6 -17l3 -8l4 -9l13 -35
l17 -32l22 -28l11 -15l10 -15l13 -13l13 -13l26 -23l15 -11l15 -11l30 -17l17 -9l15 -9l35 -12l19 -5l17 -6l17 -2l20 -5v241h-90l-9 2l-2 3h-5l-4 4l-2 2v4l-2 7v146l2 -2l2 -2l7 -5l13 -4h122l5 -2l4 -4v-146h32v142l4 8l5 2h122l13 4l6 5l5 4v0z" />
    <glyph glyph-name="guangdongfazhanyinhang" unicode="&#xe73a;" 
d="M1010 410l-5 52l-4 23l-7 26l-12 48l-11 22l-9 24l-11 21l-13 22l-26 39l-15 19l-15 18l-17 19l-18 15l-19 17l-17 16l-20 13l-22 13l-19 13l-22 10l-23 11l-22 9l-24 6l-24 9l-47 9l-26 4l-26 2h-52l-24 -2l-26 -4l-48 -9l-23 -9l-24 -6l-24 -9l-43 -21l-22 -13l-39 -26
l-19 -16l-18 -17l-17 -15l-17 -19l-15 -18l-15 -19l-26 -39l-13 -22l-11 -21l-11 -24l-9 -22l-6 -24l-9 -24l-4 -26l-4 -23l-5 -26l-2 -26v-26v0v-26l2 -24l5 -26l4 -26l4 -24l9 -23l6 -24l9 -22l11 -24l11 -21l13 -22l26 -39l30 -39l17 -17l17 -15l18 -18l19 -15l39 -26
l22 -13l43 -21l48 -18l23 -6l48 -9l26 -4l24 -2h52l26 2l26 4l47 9l24 6l24 9l22 9l23 10l22 11l19 13l22 13l20 13l17 15l19 18l18 15l17 17l30 39l26 39l13 22l11 21l9 24l11 22l19 71l4 26l2 26l3 24l2 26zM503 643l-21 -21l-20 -22l-8 -13l-9 -11l-17 -26l-7 -15l-6 -13
l-11 -30l-7 -30l-2 -15l-2 -16l-2 -32l4 -392l-30 11l-28 13l-52 30l-24 20l-43 43l-20 24l-17 26l-15 26l-7 15l-6 13l-11 30l-9 31l-2 15l-4 15l-2 32l-2 33v21l4 39l4 20l9 39l6 17l7 20l17 34l9 15l11 18l21 30l13 13l11 15l15 13l13 11l15 13l31 21l52 26l34 13l37 11
l58 7h50l56 -9l26 -6l52 -22l24 -11l24 -15l-20 -2h-32l-30 -7l-16 -2l-15 -4l-28 -11l-28 -13l-13 -9l-11 -8zM899 384v-20l-4 -39l-4 -19l-5 -17l-4 -20l-7 -17l-6 -17l-6 -18l-9 -17l-20 -33l-8 -15l-11 -15l-13 -13l-13 -15l-26 -24l-13 -13l-30 -21l-15 -9l-35 -17
l-15 -9l-18 -7l-19 -4l-17 -4l-20 -4l-17 -5l-20 -2h-19v273h190v132h-199v19l2 20l7 19l13 35l11 15l4 8l7 7l13 15l13 13l15 11l34 17l18 7l17 4l19 2l22 2h15l13 -2l15 -4l15 -2l13 -7l13 -4l13 -9l11 -6l13 -9l31 -30l8 -13l7 -11l6 -13l7 -15l2 -11l4 -35l2 -17v-17z
" />
    <glyph glyph-name="guangzhounongcunshangyeyinhang" unicode="&#xe73b;" 
d="M560 774q0 -64 -1 -69q0 -20 -14 -33.5t-33 -13.5q-24 1 -38 13.5t-15 33.5q-1 81 1 147q1 21 17 36.5t35 15.5q17 -1 31.5 -16.5t15.5 -36.5v-77h1zM558 -3v-70q-1 -23 -14 -36t-33 -13q-49 0 -50 49q-1 61 0 144q0 21 13 33t35 12q21 1 34 -11.5t15 -33.5v-5v-69v0v0z
M274 8q-35 3 -48 36q-11 31 16 49q69 45 134 83q17 9 34 3.5t28 -20.5q9 -13 6.5 -32t-16.5 -28q-27 -19 -141 -87q0 -1 -13 -4v0zM794 63q0 -28 -22 -44.5t-43 -5.5q-57 31 -137 84q-14 9 -17.5 27.5t5.5 32.5q9 16 26.5 22t33.5 -2q65 -37 138 -86q5 -3 8 -8.5t5.5 -11.5
t2.5 -8v0zM395 599q-22 8 -24 9q-74 42 -117 68q-45 28 -21 69q24 40 69 14q59 -33 119 -70q34 -21 24 -54.5t-50 -35.5zM794 710q-2 -1 -6 -7.5t-8.5 -12.5t-9.5 -9q-52 -34 -128 -76q-18 -10 -35 -5t-27 21q-11 17 -8 34.5t20 28.5q76 48 137 80q22 12 44 -5.5t21 -48.5z
M394 208l-11 2q-113 62 -141 79q-16 10 -19 27t7 32q10 17 27 23t33 -2q70 -36 133 -73q32 -19 22 -53q-10 -36 -51 -35zM625 208q-40 -1 -51 34q-11 34 19 52q59 35 137 76q15 7 31.5 1t26.5 -22q9 -14 7.5 -31t-14.5 -25q-28 -17 -149 -84zM396 574q33 -6 43 -33
q13 -35 -18 -56q-54 -36 -127 -78q-18 -10 -35.5 -5t-28.5 23q-11 15 -7.5 32t20.5 28q41 28 130 82q1 1 23 7zM796 458q1 -30 -22 -48t-44 -6q-62 34 -135 83q-16 11 -19 30.5t7 34.5q11 16 29 20t37 -7q78 -48 124 -78q5 -4 9.5 -9.5t8.5 -12t5 -7.5z" />
    <glyph glyph-name="nongyeyinhang1" unicode="&#xe68f;" 
d="M481 569h49q26 0 30 8q3 6 3 11v26v33v137q0 65 -2 65h-95q-2 0 -2 -33v-136q0 -10 -1 -29.5t-1 -35.5t2 -30t17 -16zM622 839v-142q0 -13 1.5 -41.5t1 -51t-3.5 -41.5q-1 -12 -19.5 -15t-37 0t-29.5 0q-7 -3 -10 -11t-3 -15.5t1 -19t1 -14.5v-91q2 6 8.5 9t11 3.5t14 0
t11.5 -0.5q8 0 24.5 -1.5t30 -1.5t23.5 3q15 4 15 20q-2 1 -2 9t1 17.5t1 10.5v56v203q93 -44 149 -134t56 -195q0 -133 -88 -236t-218 -120v108v54v25v13q1 3 2 5l1 1q1 0 3 1q3 1 31 -1t49 2t15 18q-2 4 -2 12.5t1 19.5t1 14v94q0 -7 -2.5 -11.5t-8.5 -6t-10 -2t-13 0
t-10 0.5q-8 0 -24 0.5t-28.5 0.5t-23.5 -1q-7 0 -11.5 -3t-6 -10t-1.5 -11.5t0.5 -13.5t0.5 -11v-91q-14 0 -16 1q-4 1 -4.5 1.5t-0.5 7.5v25v47q0 3 1 12.5t0.5 17t-2.5 13.5q-1 6 -5 9.5t-11 5t-12.5 1.5t-13.5 -0.5t-10 -0.5q-8 0 -23 -1t-28 -1t-23 2q-13 4 -11 18v-107
q0 -4 -0.5 -11.5t-0.5 -13.5t1 -11q1 -6 4.5 -9.5t9.5 -5t10.5 -1.5t12 0.5t9.5 0.5h46q3 0 4.5 -1t2 -3t0.5 -4v-5v-5v-189q-130 17 -218 120t-88 236q0 105 57 195t150 134v-231q0 -11 -0.5 -32.5t-0.5 -33.5q3 -17 19 -19h59q3 0 14.5 0.5t19 0.5t16 -3t11.5 -10v104
q0 2 0.5 10.5t0 11.5l-1.5 9t-3.5 8.5t-7 5t-11 3t-14.5 0.5h-17.5h-14.5q-11 0 -17.5 2t-9 9t-2.5 12v19v248q-102 -26 -182 -96.5t-121.5 -169.5t-33.5 -206q6 -95 51 -179t113.5 -141t158.5 -84.5t182 -14.5q113 15 203.5 84t139.5 173.5t42 219.5q-8 146 -102 262
t-234 152z" />
    <glyph glyph-name="quanzi" unicode="&#xe60b;" 
d="M532 629q-102 0 -174 -72t-72 -174t72 -174.5t174 -72.5t174 72.5t72 174.5t-72 174t-174 72zM532 218q-68 0 -116.5 48.5t-48.5 116.5t48.5 116.5t116.5 48.5t116.5 -48.5t48.5 -116.5t-48.5 -116.5t-116.5 -48.5zM530 878q-101 0 -192.5 -39t-158 -105.5t-105.5 -158
t-39 -192.5q0 -77 25 -158l-59 -272q-4 -24 11 -36q10 -13 29 -13h7l251 38q110 -56 231 -56q101 0 192.5 39t157.5 105t105.5 158t39.5 192.5t-39.5 192.5t-106 159t-158 106.5t-191.5 39.5zM532 55q-89 0 -164.5 44t-119.5 119.5t-44 164.5t44 164.5t119.5 119.5t164.5 44
t164.5 -44t119.5 -119.5t44 -164.5t-44.5 -164.5t-120 -119.5t-163.5 -44zM532 469q-35 0 -59.5 -25t-24.5 -59t25 -59t59 -25q35 0 59.5 25t24.5 59t-25 59t-59 25z" />
    <glyph glyph-name="shanghaipudongfazhanyinhang" unicode="&#xe683;" 
d="M405 536q-28 55 -72 88t-92 40t-94 -4t-82 -44.5t-52 -80.5q-7 -52 -13 -106v-330l156 -147v403q0 4 1 11t7.5 27t16 37.5t29 39t44.5 36.5t64.5 24t86.5 6zM176 229q6 -1 15 -1.5t36 1t51.5 7t54.5 21t52 39t38 65t18 94.5q-1 59 22 103.5t60 67.5t83 30t90 -4t82.5 -40
t59.5 -71q-5 0 -13 -1t-31.5 -4.5t-45.5 -10.5t-49.5 -21t-48.5 -33t-37.5 -50t-21.5 -69v-12.5t-3.5 -32.5t-9 -46.5t-18.5 -50.5t-30.5 -49.5t-46.5 -38.5t-65 -22q-4 0 -11 -1t-28 -1.5t-41 2t-45.5 11t-46.5 22t-40 38.5t-30 58zM619 232q28 -55 72 -88t91 -39.5t92 5
t81 45t51 80.5q16 37 18 104v330l-156 147v-403q0 -4 -1.5 -11t-7.5 -27t-15.5 -37.5t-29 -39t-44.5 -36.5t-64.5 -24t-86.5 -6z" />
    <glyph glyph-name="zhongxinshiyeyinhang" unicode="&#xe686;" 
d="M0 -128v1024h1024v-1024h-1024zM511 -125l-509 510l509 509l510 -509zM359 680l1 5l1 2l1 2l4 4l3 2l17 6l17 7l8 2l9 4l18 4l18 3l10 2l9 1l19 2h38l9 -1l10 -1l18 -3l19 -3l18 -4l18 -6l16 -7l17 -7l3 -3l4 -3l2 -3v-2l1 -3v-3l-1 -3l-1 -3l-1 -2l-2 -2l-3 -1l-6 -4
l-9 -4l-10 -6l-11 -7l-6 -5l-7 -5l-6 -8l-7 -7l-5 -6l-5 -7l-8 -13l-6 -14l-4 -12l-3 -11l-2 -9l-1 -7v-494l-13 -3l-12 -1h-51l-13 2l-13 2v498l-1 7l-2 10l-3 10l-5 12l-5 12l-4 6l-4 7l-4 6l-5 6l-7 7l-5 7l-7 5l-5 5l-7 4l-6 3l-10 6l-7 5l-7 3l-2 1l-3 2l-2 2l-1 3v6v0
zM667 80l-18 -9l-19 -8l-20 -6l-19 -5v487l2 12l3 11l3 10l4 9l5 9l5 8l5 7l6 6l6 6l6 5l11 8l6 4l5 2l5 2l4 2v-560v0zM695 674l15 -11l16 -12l14 -12l14 -12l13 -13l11 -15l7 -8l6 -7l10 -16l9 -16l9 -16l8 -18l7 -18l7 -18l4 -19l4 -18l2 -10l1 -10l-1 -4l-3 -3l-3 -5
l-4 -3l-3 -2l-3 -1l-3 -1l-5 -1h-4l-6 1l-4 1l-5 1l-4 2l-5 2l-5 5l-4 3l-2 2l-4 6l-2 5l-4 7l-1 1l-1 2l-2 2h-5l-2 -2l-3 -2l-3 -4l-4 -7l-7 -11l-2 -8l-3 -8l-1 -5v-5l-1 -11v-6l1 -7l2 -8l3 -8l4 -7l1 -5l2 -3l6 -7l4 -5l2 -1l2 -2h4l1 2l2 1l2 3l4 8l4 5l5 7l3 2l3 4
l4 2l4 2l4 2l5 1l6 1h5l5 -1l4 -1l4 -3l5 -2l3 -4l2 -3l3 -2v-2l-3 -20l-4 -19l-2 -9l-2 -10l-7 -18l-7 -18l-8 -18l-8 -16l-10 -16l-10 -16l-12 -15l-6 -7l-6 -8l-13 -13l-14 -13l-14 -11l-16 -13l-15 -10v579v0zM330 95l-16 13l-9 5l-9 7l-8 7l-8 7l-8 7l-6 8l-15 15l-6 9
l-7 8l-6 9l-6 9l-11 18l-5 10l-5 9l-8 20l-5 10l-3 10l-3 10l-4 11l-2 10l-2 11l-3 22l-3 22l-1 23v11l1 11v11l3 11l1 11l2 11l4 21l7 21l3 10l5 10l8 20l5 9l5 10l11 18l12 18l13 17l15 15l14 15l16 14l18 12l16 13v-251l-1 -3l-1 -3l-3 -4l-4 -3l-4 -2l-2 -1l-4 -1l-3 -2
h-7l-4 2l-5 1l-5 1l-4 2l-4 2l-7 5l-2 3l-2 2l-5 6l-2 5l-3 7l-1 1l-2 2l-2 2h-4l-2 -2l-4 -2l-3 -4l-4 -7l-6 -11l-3 -8l-2 -8l-2 -5v-5l-1 -11v-6l1 -7l3 -8l2 -8l3 -7l2 -5l3 -3l4 -7l6 -5l2 -2l2 -1h3l2 1l1 2l3 3l3 8l4 5l5 7l4 2l3 3l3 3l4 2l4 2l6 1l4 1h6l4 -1l5 -1
l4 -2l3 -2l6 -6l3 -4v-252v0zM434 52l-20 6l-19 5l-9 5l-9 3l-9 4l-9 5v560l8 -3l11 -6l6 -4l5 -3l6 -5l5 -5l6 -7l5 -7l5 -6l5 -8l4 -9l3 -10l3 -10l3 -12v-493v0z" />
    <glyph glyph-name="dongyingshishangyeyinhang" unicode="&#xe692;" 
d="M514 -128q-105 0 -200 40.5t-164 109t-109.5 163t-40.5 197.5q0 105 40.5 200t109.5 164t164 109.5t200 40.5q103 0 197.5 -40.5t163 -109.5t109 -164t40.5 -200q0 -103 -40.5 -197.5t-109 -163t-163 -109t-197.5 -40.5zM419 785q-138 -33 -227 -144.5t-89 -258.5
q0 -99 45.5 -187t124.5 -145q-20 32 -34.5 87.5t-19.5 90t-5 39.5q-3 68 13 125.5t40 91t49.5 57.5t41.5 33.5t18 9.5q43 22 74 21.5t47 -13.5l17 -12l36 -36q14 -16 33.5 -21t32.5 -2l13 3q25 12 38.5 32t14.5 39t-1.5 36.5t-7.5 28.5l-5 11q-53 134 -249 114zM585 -21
q146 24 243 138t97 265q0 96 -42.5 181.5t-115.5 142.5q25 -52 38.5 -106.5t13.5 -95t-3 -74t-8 -50.5l-5 -18q-15 -47 -39.5 -85t-46.5 -57t-47.5 -32t-34.5 -16t-14 -4v0q-27 -7 -47.5 -4t-35 10t-23.5 16t-13 15t-4 7q-10 14 -25 22t-25 9l-9 1q-21 1 -38 -5t-25.5 -16
t-14.5 -19.5t-7 -16.5l-2 -7q0 -4 -2 -13t-2 -10q2 -16 5.5 -30.5t8 -26t10 -22t10.5 -17.5t8.5 -12.5t6 -8l2.5 -2.5q37 -37 90.5 -50t95.5 -9zM403 382l115 -115l115 115l-115 119z" />
    <glyph glyph-name="shanghaipudongfazhanyinhang1" unicode="&#xe63e;" 
d="M405 536q-28 55 -72 88t-92 40t-94 -4t-82 -44.5t-52 -80.5q-7 -52 -13 -106v-330l156 -147v403q0 4 1 11t7.5 27t16 37.5t29 39t44.5 36.5t64.5 24t86.5 6zM176 229q6 -1 15 -1.5t36 1t51.5 7t54.5 21t52 39t38 65t18 94.5q-1 59 22 103.5t60 67.5t83 30t90 -4t82.5 -40
t59.5 -71q-5 0 -13 -1t-31.5 -4.5t-45.5 -10.5t-49.5 -21t-48.5 -33t-37.5 -50t-21.5 -69v-12.5t-3.5 -32.5t-9 -46.5t-18.5 -50.5t-30.5 -49.5t-46.5 -38.5t-65 -22q-4 0 -11 -1t-28 -1.5t-41 2t-45.5 11t-46.5 22t-40 38.5t-30 58zM619 232q28 -55 72 -88t91 -39.5t92 5
t81 45t51 80.5q16 37 18 104v330l-156 147v-403q0 -4 -1.5 -11t-7.5 -27t-15.5 -37.5t-29 -39t-44.5 -36.5t-64.5 -24t-86.5 -6z" />
    <glyph glyph-name="shouyeshouye" unicode="&#xe605;" 
d="M949 377l-440 411l-441 -410q-6 -6 -6.5 -15t5.5 -15.5t15 -6.5t15 6l412 383l411 -384q6 -6 14 -6q10 0 16 7q6 6 6 15t-7 15v0zM815 368q-9 0 -15.5 -6t-6.5 -15v-327h-170v227h-228v-227h-171v327q0 9 -6 15t-15 6t-15.5 -6t-6.5 -15v-370h257v228h142v-228h256v370
q0 9 -6 15t-15 6v0zM665 674h128v-114q0 -9 6.5 -15t15.5 -6t15 6t6 15v157h-171q-9 0 -15 -6.5t-6 -15.5t6 -15t15 -6v0zM665 674z" />
    <glyph glyph-name="wulumuqishangyeyinhang" unicode="&#xe614;" horiz-adv-x="1113" 
d="M491 882q53 14 107 14q46 0 106.5 -15t101.5 -36q-58 13 -116 13q-63 0 -123 -15q-119 -28 -205 -106.5t-119 -185t-2 -214.5q8 -26 24.5 -58.5t31.5 -54.5q-31 30 -61 80t-42 91q-17 65 -14.5 127.5t27 121t64 106t96.5 82.5t124 50zM753 105q-25 -15 -63 -30t-67 -21
q-118 -27 -233.5 5t-201 113t-117.5 192q-24 76 -14.5 151.5t42 140.5t90.5 116.5t131 79.5q-75 -49 -128.5 -147.5t-53.5 -188.5q0 -58 17 -114q32 -111 116 -192.5t196.5 -114.5t224.5 -7q32 6 61 17zM10 486q7 -107 47.5 -195.5t101.5 -145.5t138 -92t158 -43t161.5 9.5
t147.5 57.5t116.5 108t67.5 155q16 71 -1 140.5t-58 123.5t-103 90.5t-132.5 48t-151.5 -9.5t-154 -78q44 60 107 99t130.5 54t139.5 8.5t135.5 -33t117.5 -76t87 -115.5q17 -36 29 -74q18 -63 20 -128v-7q-1 -23 -4 -45q-12 -141 -104 -257t-236 -171q-7 -2 -13 -5h-1
q-6 -3 -12 -5h-2q-70 -22 -144 -26.5t-142.5 8t-134 40t-119 69.5t-97.5 94.5t-69 116t-33.5 135t7.5 149.5zM590 671q116 0 199 -77.5t83 -186t-83 -185.5t-199 -77v143l137 119l-137 121v143zM590 144q-118 0 -201 77t-83 185.5t83.5 186t200.5 77.5v-143l-138 -120
l138 -119v-144z" />
    <glyph glyph-name="zhangjiagangnongcunshangyeyinhang" unicode="&#xe615;" horiz-adv-x="1494" 
d="M17 415q0 247 160 381q110 92 252 99q115 6 173 -47q33 -31 33 -74q0 -8 -4 -20.5t-14.5 -29.5t-35.5 -28.5t-59 -11.5q-2 2 -20 6t-52.5 7t-75.5 1t-90.5 -18.5t-95.5 -45.5t-92 -85.5t-79 -133.5zM871 507q-3 -27 -28 -49.5t-60 -24.5q-16 -1 -34.5 8.5t-35.5 21.5
t-53 22t-83 10q-85 0 -156.5 -29.5t-117 -78t-72 -106.5t-31.5 -119q0 37 3 73t14 87.5t28.5 95t50.5 89t76.5 77t109.5 51.5t147 20q66 0 116.5 -13.5t77.5 -36t39.5 -47.5t8.5 -51zM322 636q21 -16 27.5 -48t-9.5 -66q-7 -14 -24.5 -26.5t-37 -23t-48 -37.5t-54.5 -66
q-50 -76 -62 -154t9.5 -141.5t60 -114.5t89.5 -87q-31 18 -61 40.5t-68 58t-66.5 74.5t-50 91.5t-26.5 107t11.5 122.5t57.5 138q34 57 71.5 93t70.5 48t61 9.5t49 -18.5zM313 113l223 223l223 -223l-223 -223zM863 82v18l87 96q9 10 17 17h-94v18h120v-18l-94 -103l-10 -10
h107v-18h-133zM1006 72h-152v29l88 102l1 1h-80v36h140v-27l-92 -104h95v-37v0zM975 207l-2 -1q-8 -8 -16 -17l-73 -80l8 8zM1020 82v149h75h4q15 0 30 -4q12 -4 19 -14t7 -23v0v-1q0 -15 -12 -26q-16 -12 -36 -13q8 -3 14 -8q11 -8 19 -19l29 -41h-29l-22 31q-9 12 -16 21
q-5 5 -11 9q-5 3 -10 4t-10 1h-2h-26v-66h-23zM1042 165h48h3q11 0 21 3q8 2 13 9q5 6 5 13v1q0 11 -9 17q-11 7 -24 7h-3h-53zM1187 72h-52l-25 35q-8 11 -15 20q-4 5 -9 8q-4 2 -8 3h-4.5h-5.5h-16v-66h-41v168h84q2 1 5 1q17 0 33 -5q14 -5 23 -18t9 -28v0v-1
q0 -20 -15 -33q-8 -7 -18 -11q9 -8 16 -17l40 -56h-1zM1145 92h4l-18 25q-7 10 -16 18l-2 1q5 -7 13 -17l19 -27v0zM1030 92h3l-3 129v-129zM1126 218l3 -3q13 -9 13 -25v0q0 -10 -7 -19q-1 -2 -3 -4q2 2 5 4q8 7 8 19v0v1q0 9 -5 16.5t-14 10.5v0zM1052 175h38h3q9 0 18 2
q5 1 8 5t3 8q0 6 -5 10q-9 5 -18 5h-3h-44v-30v0zM1309 134l23 -5q-6 -23 -26 -37q-19 -12 -41 -12h-3q-2 -1 -4 -1q-21 0 -40 10q-17 10 -26 28q-9 19 -9 40v0v2q0 21 10 39q10 17 29 26q18 9 39 9h1h3q21 0 40 -11q17 -12 24 -32l-22 -5q-5 15 -17 24q-12 7 -26 7h-2.5
h-2.5q-16 0 -30 -8q-13 -8 -18.5 -22t-5.5 -30t7 -32q6 -14 19 -21t28 -7h1h1q17 0 30 10q15 10 18 28zM1262 70h-4q-24 0 -45 11q-20 11 -30 32q-9 21 -9 43v1v2q0 23 11 44q12 20 33 30q22 11 48 10t44 -13q21 -14 28 -37l4 -10l-41 -9l-3 8q-4 12 -13 19q-12 6 -24 6
q-14 0 -26 -7q-10 -6 -15 -17q-4 -12 -4 -25v-2q0 -14 5 -28q5 -10 15 -16q11 -6 24 -6q14 0 26 8q11 9 14 23l2 9l42 -9l-3 -10q-7 -26 -29 -42q-22 -15 -48 -15h-2v0zM1213 206q-7 -6 -11 -13q-9 -16 -9 -34v-2v-1q0 -18 8 -35q6 -12 17 -20q-10 8 -15 19q-7 17 -7 36
q0 17 6 33q4 10 11 17zM872 -106v156h63h3q15 0 28 -4q12 -5 18 -15q7 -9 7 -21q0 -10 -6 -19q-7 -9 -17 -14q14 -3 23 -14q8 -10 8 -23v-1v0q0 -11 -5 -20q-4 -9 -12 -15q-9 -5 -19 -8q-12 -2 -25 -2h-2h-64zM894 -15h37h3q9 0 18 1q8 2 13 8q4 6 4 13v1v0q0 7 -4 14
q-4 6 -11 8q-11 2 -22 2h-4h-34v-47zM894 -88h42h3q6 0 12 1q7 1 13 4q6 4 9 9q3 6 3 13v0v1q0 8 -5 15t-13 9q-11 3 -22 3h-3h-39v-55zM1011 -106l64 156h24l69 -156h-25l-20 47h-70l-19 -47h-23zM1059 -42h57l-18 44q-8 19 -12 32q-3 -15 -9 -30zM1186 -106v156h23
l88 -122v122h22v-156h-23l-88 123v-123h-22zM1355 -106v156h22v-77l84 77h30l-70 -63l73 -93h-29l-60 79l-28 -25v-54h-22z" />
    <glyph glyph-name="314305670002" unicode="&#xe636;" horiz-adv-x="1494" 
d="M17 415q0 247 160 381q110 92 252 99q115 6 173 -47q33 -31 33 -74q0 -8 -4 -20.5t-14.5 -29.5t-35.5 -28.5t-59 -11.5q-2 2 -20 6t-52.5 7t-75.5 1t-90.5 -18.5t-95.5 -45.5t-92 -85.5t-79 -133.5zM871 507q-3 -27 -28 -49.5t-60 -24.5q-16 -1 -34.5 8.5t-35.5 21.5
t-53 22t-83 10q-85 0 -156.5 -29.5t-117 -78t-72 -106.5t-31.5 -119q0 37 3 73t14 87.5t28.5 95t50.5 89t76.5 77t109.5 51.5t147 20q66 0 116.5 -13.5t77.5 -36t39 -47.5t9 -51zM322 636q21 -16 27.5 -48t-9.5 -66q-7 -14 -24.5 -26.5t-37 -23t-48 -37.5t-54.5 -66
q-50 -76 -62 -154t9.5 -141.5t60 -114.5t89.5 -87q-31 18 -61 40.5t-68 58t-66.5 74.5t-50 91.5t-26.5 107t11.5 122.5t57.5 138q34 57 71.5 93t70.5 48t61 9.5t49 -18.5zM313 113l223 223l223 -223l-223 -223zM863 82v18l87 96q9 10 17 17h-94v18h120v-18l-94 -103l-10 -10
h107v-18h-133zM1006 72h-152v29l88 102l1 1h-80v36h140v-27l-91 -104h94v-37v0zM975 207l-2 -1q-38 -35 -58 -83l-31 -14l8 8zM1020 82v149h75h4q16 0 31 -4q13 -5 20 -18q5 -6 5 -19v0v-1q0 -15 -12 -26q-16 -13 -38 -13q15 -5 25 -16q13 -8 24 -37l15 -15h-29l-22 31
q-9 12 -16 21q-9 10 -22 14q4 -1 1 -1q-4 1 -6 1h-4h-3h-25v-66h-23zM1042 165h48h3q11 0 22 3q9 3 14 12q3 3 3 11v0q0 10 -9 17q-11 7 -24 7h-3h-53zM1187 72h-52l-25 35q-8 11 -15.5 20t-17.5 12l1 -1q-3 1 -4 1v-1h-1h-5h-16v-66h-41v168h84q2 1 5 1q17 0 34 -5
q17 -6 25 -23q6 -6 6 -23v0v-1q0 -20 -15 -33q-11 -11 -27 -13q31 -15 43 -50l22 -21h-1zM1145 92h4l-18 25q-15 21 -38 31l20 -12q5 -7 13 -17l19 -27v0zM1030 92h3l-3 129v-129zM1126 218l3 -3q13 -9 13 -25v0q0 -11 -7 -19q-4 -6 -11 -10q15 11 19 17q2 5 2 12v0v1
q0 9 -5 16q-6 9 -17 11h3zM1052 175h38h3q9 0 19 2q5 2 8 7q2 2 2 6q0 6 -5 10q-8 5 -18 5h-3h-44v-30v0zM1309 134l23 -5q-7 -26 -31 -40q-13 -9 -36 -9h-3q-2 -1 -4 -1q-22 0 -40 10q-22 13 -29 36q-6 8 -6 32v0v2q0 21 10 39q13 22 37 29q8 6 31 6h2h2q22 0 40 -12
q20 -13 25 -37l-23 1q-6 18 -22 27q-7 4 -21 4h-3h-2q-16 0 -30 -8q-16 -10 -20 -27q-4 -8 -4 -25t7 -32q7 -16 23 -23q8 -5 24 -5h1h1q17 0 30 10q16 12 19 32zM1262 70h-4q-24 0 -46 11q-24 14 -32 42q-6 8 -6 33v2v1q0 24 11 44q15 25 42 34q14 8 40 6.5t43 -13.5
q24 -16 30 -44l2 -3l-41 -9l-3 8q-4 14 -17 21q-9 4 -20 4q-14 0 -26 -7q-12 -8 -16 -21q-3 -7 -3 -21v-2q0 -15 5 -28q6 -12 19 -17q6 -5 20 -5t26 8q13 10 14 25l2 7l42 -9l-3 -10q-8 -30 -35 -46q-15 -11 -42 -11h-2v0zM1213 206q-12 -10 -17 -25l-3 -20v-2v-2v-1
q0 -18 8 -35t24 -25q-20 15 -25 33q-4 5 -4 27q0 18 6 34q6 14 18 23zM872 -106v156h63h3q15 0 29 -5q13 -5 20 -18q4 -4 4 -17q0 -10 -6 -19q-9 -12 -23 -16q21 -1 32 -16q5 -6 5 -19v-1v0q0 -11 -5 -20q-6 -13 -18 -18q-4 -4 -20 -6q-1 -1 -18 -1h-2h-64zM894 -15h37h3
q10 0 19 2q8 2 13 9q3 4 3 11v1v0q0 8 -4 14q-5 7 -13 8q-8 2 -20 2h-4h-34v-47zM894 -88h42h3q6 0 13 1q8 1 15 6q4 3 7 11q2 0 2 9v0v1q0 8 -5 15q-6 8 -16 10q-7 2 -19 2h-3h-39v-55zM1011 -106l64 156h24l69 -156h-25l-20 47h-70l-19 -47h-23zM1059 -42h57l-18 44
q-8 19 -12 32q-7 -33 -25 -61zM1186 -106v156h23l88 -122v122h22v-156h-23l-88 123v-123h-22zM1355 -106v156h22v-77l84 77h30l-70 -63l73 -93h-29l-60 79l-28 -25v-54h-22z" />
    <glyph glyph-name="402584009991" unicode="&#xe637;" horiz-adv-x="1399" 
d="M0 377l252 253l448 -427l447 427l253 -253l-506 -505h-388l-506 505v0zM316 693l173 -166l211 -201l245 234l139 133l-203 203h-362z" />
    <glyph glyph-name="313611001018" unicode="&#xe638;" 
d="M0 384q0 -139 68.5 -257t186.5 -186.5t257 -68.5t257 68.5t186.5 186.5t68.5 257t-68.5 257t-186.5 186.5t-257 68.5t-257 -68.5t-186.5 -186.5t-68.5 -257zM624 129q-143 -61 -278.5 -37.5t-216.5 118.5q86 -145 233.5 -192.5t301.5 18.5q139 60 207.5 189.5t37.5 273.5
q-9 -111 -86 -213t-199 -157zM313 692q-66 -43 -114.5 -100.5t-71.5 -117.5t-20.5 -120.5t33.5 -109.5q42 -65 120.5 -92t174 -10.5t184.5 72.5q97 63 159 159q-101 -109 -112 -97v0q-10 9 -53 -2q-17 -4 -75 -22.5t-76 -22.5q-25 -7 -37 -4t-23 26q-7 15 -28.5 64t-39 90.5
l-17.5 41.5q-6 13 -8.5 18.5t-4 14.5t2.5 13.5t12.5 9.5t24.5 9q107 29 191 54q21 9 34.5 5t21.5 -27q7 -21 44.5 -110t45.5 -105q10 -21 26 -27q5 -2 12 1t9 6q75 85 93 180.5t-29 172.5q-42 65 -120.5 92t-174 10.5t-184.5 -72.5z" />
    <glyph glyph-name="shouye_shouye" unicode="&#xe607;" 
d="M994 375l-469 438l-469 -437q-7 -7 -7 -16t6.5 -16t15.5 -7.5t16 6.5l438 408l438 -410q6 -6 15 -6v0v0q10 0 17 7q6 7 5.5 16.5t-6.5 16.5zM850.5 366q-9.5 0 -16 -7t-6.5 -16v-349h-182v243h-242v-243h-182v349q0 9 -6.5 16t-16 7t-16 -7t-6.5 -16v-394h272v242h152
v-242h272v394q0 9 -6.5 16t-16 7zM692 691h136v-121q0 -9 6.5 -16t16 -7t16 7t6.5 16v167h-181q-10 0 -16.5 -7t-6.5 -16.5t6.5 -16t16.5 -6.5zM207 -15h210v232h203v-232h226v360h125l-446 423l-462 -417l142 -6z" />
    <glyph glyph-name="jiangbei1" unicode="&#xe62c;" 
d="M512 241q-72 0 -146 32q-75 23 -117 87.5t-42 147.5v343q0 20 12.5 32.5t31.5 12.5h528q19 0 32 -12.5t13 -32.5v-343q0 -77 -44 -142t-115 -93q-64 -32 -153 -32zM270 832v-324q0 -58 32.5 -106.5t88.5 -71.5q129 -50 248 0q54 24 87.5 73t33.5 105v324h-490zM785 419
l-6 64q19 0 45 12q19 10 31.5 31.5t12.5 45.5v108h-83v63h102q19 0 32 -12.5t13 -31.5v-127q0 -42 -25 -78t-64 -56q-9 -6 -18.5 -9t-21 -5.5t-18.5 -4.5zM232 419q-6 2 -18 4.5t-21.5 5.5t-17.5 9q-43 14 -66 49.5t-23 84.5v127q0 19 12.5 31.5t31.5 12.5h102v-63h-83v-108
q0 -25 14 -46t37 -31q7 -3 22 -6.5t23 -5.5zM480 273h64v-299h-64v299zM735 -58h-446q-14 0 -22.5 8.5t-8.5 23t8.5 23.5t22.5 9h439q15 0 23.5 -9t8.5 -23t-7.5 -23t-17.5 -9zM595 483l-83 44l-83 -44l13 89l-64 70l89 12l45 83l45 -83l89 -12l-64 -70z" />
    <glyph glyph-name="yinlian-px" unicode="&#xe661;" 
d="M201 704h255q27 0 41.5 -19t8.5 -46l-119 -510q-6 -27 -29.5 -46t-50.5 -19h-255q-27 0 -41.5 19t-8.5 46l119 510q6 27 29.5 46t50.5 19zM435 704h294q7 0 12 -1.5t7 -5t2.5 -7.5t-0.5 -10.5t-2.5 -11.5t-4 -14t-3.5 -15l-119 -510q-2 -7 -4.5 -20.5t-4 -18.5
t-5.5 -12.5t-10.5 -10.5t-17.5 -3h-293q-27 0 -41.5 19t-8.5 46l119 510q7 27 30 46t50 19zM717 704h255q27 0 41.5 -19t8.5 -46l-119 -510q-6 -27 -29.5 -46t-50.5 -19h-255q-27 0 -41.5 19t-8.5 46l119 510q6 27 29.5 46t50.5 19zM674 224h24l7 23h-24zM694 288l-9 -28
q9 5 14 7l13 2l6 19h-24zM705 327l-8 -26q9 4 14 5l13 2l6 19h-25zM759 327l-31 -103h8l-6 -21h-9l-2 -7h-29l2 7h-61l7 20h6l31 104l6 21h31l-4 -10q9 5 16 7l52 3l-7 -21h-10v0zM772 348h32l1 -12q-1 -3 5 -3h6l-6 -20h-17q-21 -1 -20 13zM776 254h-30l5 18h35l5 16h-35
l6 20h97l-6 -20h-33l-5 -16h33l-6 -18h-35l-6 -7h14l4 -23q0 -4 1 -4q1 -2 7 -2h5l-7 -21h-11h-7q-2 0 -8 3q-5 3 -6 8l-3 22l-16 -22q-9 -12 -24 -12h-22l6 19h8l6 2t5 4zM440 302h81l-6 -19h-32l-6 -17h34l-6 -20h-34l-8 -27q-1 -3 11 -3l17 2l-7 -22h-37q-4 0 -9 1
q-4 1 -6 5q-3 5 -2 8l11 36h-18l6 20h18l5 17h-18zM495 337h33l-6 -20h-46l-5 -4q-1 -1 -2.5 -2t-2.5 -1q-7 -4 -15 -4h-15l6 20h4q6 0 8 1q3 2 5 6l8 15h33zM559 304q9 8 24 11h26l3 11h-47zM603 295h-47l-3 -9h40h6h1zM542 348h29l-4 -14q9 7 15 9l20 5h46l-15 -52
q-4 -12 -8 -17q-3 -5 -8 -8q-5 -2 -10 -3q-7 -1 -14 -1h-1h-44l-13 -41q-1 -6 0 -7q1 -2 4 -2v0l19 2l-6 -23h-22q-10 0 -16 1q-8 0 -9 1q-5 5 -5 7q0 3 2 11zM625 264l-2 -13q-2 -6 -6 -9q-6 -6 -15 -6h-16v-14q0 -3 2 -5q1 -1 2 -1h5l15 1l-6 -20h-18q-20 0 -24 2
q-3 2 -3 8l1 56h28l-1 -12h7h1q2 0 4 1q1 1 2 3l2 9h22zM231 541q0 -2 -5 -23.5t-9.5 -42l-4.5 -20.5q-6 -29 -16 -36q-8 -7 -18 -7h-1q-17 0 -19 17v4l3 22q19 74 22 84v1q-42 0 -43 1l-1 -5l-19 -84l-1 -7l-4 -24q0 -10 5 -17q9 -17 47 -17q28 0 46 10q20 12 30 47l2 8
q19 77 22 87q0 1 1 1q-33 0 -37 1zM337 387h-10h-22l-1 1q0 1 1.5 7.5t2.5 9.5l2 8q5 23 6 30q1 9 -6 9q-4 0 -10 -3q-1 -4 -7 -33q-3 -10 -6 -28l-1 -1h-10h-23l-1 1q4 15 8 31q6 30 9 53l2 1q19 3 34 6l1 -2l-2 -9q6 4 8 5q10 5 21 5q14 0 18 -10q3 -7 -3 -34l-2 -9
q-5 -21 -7 -37zM389 387h-17h-17h-1v1q2 6 4 13q2 5 4 12q3 16 4 23q1 6 3 17v0l1 1l17 2q5 1 19 3v0v-1q-2 -8 -4 -18q-1 -3 -2.5 -9l-2.5 -10l-2 -10t-1.5 -7t-1 -3.5t-1 -5t-0.5 -7.5h-1zM471 433q-3 -15 -7.5 -21t-9.5 -6q-8 0 -8 9q0 8 2 15q6 27 18 27q11 0 5 -24z
M505 431q5 24 -4 35t-31 11q-24 0 -38 -13q-12 -11 -17 -33q-8 -34 14 -42q8 -4 21 -4q25 0 40 16q10 11 15 30zM838 476q-16 -3 -35 -5l-1 -1l-1 -4q-4 7 -11 9q-6 3 -16.5 -0.5t-20.5 -12.5q-12 -11 -17 -33q-8 -33 14 -42q9 -3 18 -3q8 1 17 8l-2 -5l1 -1h34l2 1
q4 27 10 52q3 10 9 36zM788 410q-5 -6 -13 -6q-7 0 -7 10q0 7 2 14q6 27 17 27q10 0 9 -16l-1 -8q-1 -2 -4 -13q-1 -4 -3 -8zM592 387h-10h-22l-1 1q1 3 2.5 9t1.5 8l2 8q5 23 6 30q1 9 -6 9q-3 0 -10 -3q-1 -3 -7 -33q-1 -5 -6 -28l-1 -1q-16 1 -33 0v1q3 15 7 31
q7 30 10 53l1 1q20 3 34 6l2 -2l-3 -9q5 3 8 5q10 5 21 5q14 0 18 -10q3 -8 -3 -34l-2 -9q-5 -21 -7 -37zM703 541h-10q-37 -1 -44 0l-1 -5l-10 -47l-25 -102h39q0 1 1.5 9.5t3 15.5l1.5 7q5 20 5 21q2 2 4 2h2q44 0 63 14t25 40q1 7 1 14q0 11 -5 17q-9 14 -50 14zM717 493
q-3 -16 -17 -23q-8 -4 -25 -4h-5v3l11 45v3v2l4 -1l23 -2q13 -5 9 -23zM403 466q7 4 7.5 9.5t-4.5 8.5q-13 8 -29 -3q-6 -4 -7 -9.5t5 -8.5q13 -8 28 3zM945 477l-1 1q-16 -4 -33 -6l-1 -1v0h-1q-5 -14 -10 -22.5t-9 -16.5v2l-2 43l-2 1q-24 -5 -32 -6l-1 -1v-1v-1
q1 -7 3 -23q1 -3 2 -10.5t1 -11.5q3 -23 4 -38q-4 -7 -10.5 -18.5t-11.5 -20.5v0l-7 -11q-2 -2 -3 -2q-2 -1 -4 -1h-1h-3l-6 -19l20 -1q16 1 23 13l12 22v0l1 1l72 128v0z" />
    <glyph glyph-name="touzhu" unicode="&#xe609;" horiz-adv-x="1077" 
d="M808 707v-188h27q11 0 19 -8t8 -19t-8 -19t-19 -8h-592q-12 0 -19.5 8t-7.5 19t8 19t19 8h26v188h-108q-33 0 -56.5 -23.5t-23.5 -56.5v-324h916v324q0 33 -23.5 56.5t-57.5 23.5h-108zM269 761v27q0 45 31.5 76.5t76.5 31.5h324q44 0 75.5 -31.5t31.5 -76.5v-27h108v0
q56 0 95.5 -39t39.5 -95v-594q0 -55 -39.5 -94.5t-94.5 -39.5h-1h-755v0q-55 0 -94.5 39.5t-39.5 94.5v594q0 56 39.5 95t94.5 39v0h108zM997 249h-916v-216q0 -33 23.5 -56.5t56.5 -23.5h755q34 0 57.5 23.5t23.5 56.5v216zM755 519v269v1q0 22 -16 37.5t-38 15.5v0h-324
q-22 0 -38 -15.5t-16 -38.5v-269h432z" />
    <glyph glyph-name="zuqiu" unicode="&#xe604;" 
d="M965 387v2.5v3.5q-2 112 -56 210q-2 4 -6 6q-44 84 -128 144q3 6 -10 16t-38.5 22t-58 22t-74.5 17t-82 7q-154 0 -277 -95q-71 -55 -115.5 -132.5t-56 -167.5t12 -176.5t78.5 -158.5q1 -1 5 -6l1 -1q65 -80 157 -124t196 -44q154 0 276 94q94 73 140 182l-59 -98v0
q46 56 70.5 128t24.5 149zM702 168l-49 55l63 192l102 16l102 -55q-3 -131 -80 -235zM414 240l-60 187l159 116l159 -116l-61 -187h-197zM918 428l-67 35l38 78q29 -67 31 -145zM835 634q54 -70 75 -157l-103 -3l-103 -15l-169 123l-2 71l134 109q101 -41 168 -128zM617 779
l-106 -87l-106 86q51 14 107 14v0q54 0 105 -13zM263 707q80 62 180 80l46 -134l1 -71l-168 -123l-92 15l-63 128q39 61 96 105zM141 554l44 -91l-79 -42q1 9 2 15q8 62 33 118zM105 370l114 61l91 -15l63 -195l-40 -53l-147 -29q-77 103 -81 231zM220 100l106 21l14 -107
q-68 32 -120 86zM387 -4l-18 145l40 54h209l49 -55l-17 -140q-66 -24 -137 -24q-65 0 -126 20zM762 61q-75 -58 -169 -77l117 137l97 -19q-67 -70 -157 -102z" />
    <glyph glyph-name="beijingnongshangyinhang" unicode="&#xe617;" horiz-adv-x="1039" 
d="M593 -93q134 17 238 103.5t148 213.5v0q36 99 23 211.5t-74 208.5q-67 105 -173 162.5t-224 57.5q-81 0 -130 -13q36 4 98 3q140 -2 252 -84t159 -212q29 -66 29 -138q0 -11 -1 -32v-3h-1q-9 -99 -69 -176.5t-151 -111.5l-4 -1l-10 -4q-2 0 -5 -1t-5 -2l-3 -1
q-37 -10 -74 -12q-39 -2 -77 4q-33 7 -66 21q-99 40 -158 131.5t-54 202.5q3 71 33.5 133.5t81.5 108.5q0 1 -2 1q-3 0 -14 -3q-23 -9 -27.5 -11.5t-6.5 -3.5q-1 -1 -3 -2t-3 -2q-68 -39 -115 -102q0 -1 -1 -2t-1 -2l-6 -8q-4 -6 -5 -7l-3 -4q-3 -5 -6 -11l-1 -1
q-47 -78 -57 -170v-1v-5v-4.5t-0.5 -4.5t-0.5 -5v-3v-15v-25q6 -109 65 -198.5t153 -138.5q122 -56 251 -43v1zM625 679q-57 13 -107 -20t-62 -91q-13 -59 19 -109.5t90 -62.5v-1h1q58 -12 90 -63t20 -110q-11 -49 -49 -81t-86 -34q-1 -1 0 -2q107 -10 194.5 55t110.5 174
q16 77 -7.5 150.5t-80 125.5t-133.5 69v0zM238 694q-23 -9 -43.5 -25.5t-31.5 -28.5t-30 -36q-19 -22 -29.5 -34t-30.5 -26.5t-41 -21.5q38 -11 67 -3q36 8 67 45q76 91 197 129q-50 32 -125 1v0z" />
    <glyph glyph-name="zhaoshangyinhang" unicode="&#xe618;" 
d="M470 177l138 351l145 -351h-283zM179 177l139 351l145 -351h-284zM1009 257l-6 -20h-93l-10 20h109zM1015 285h-126l-10 21h139zM1022 335h-155l-9 21h166zM1024 384h-178l-8 21h186v-21zM1022 433h-197l-8 22h202zM1015 483h-210l-9 21h214zM512 896h21l22 -2l22 -2
l20 -3l21 -4l20 -4l20 -6l20 -6l9 -4l10 -3l19 -8l18 -9l18 -9l18 -9l17 -11l17 -12l16 -12l16 -11l15 -13l15 -14l14 -14l15 -15l12 -15l6 -8l6 -8l13 -17l11 -16l10 -17l11 -18l8 -18l10 -18l7 -19l7 -20l7 -19h-219l-136 317l-141 -357l-148 353l-261 -674l119 -148h604
l111 161l-11 25h72l-7 -19l-8 -18l-8 -17l-8 -17l-11 -18l-9 -16l-12 -15l-11 -16l-12 -15l-12 -15l-13 -13l-15 -14l-14 -13l-14 -13l-15 -12l-15 -12l-16 -10l-16 -11l-17 -9l-17 -10l-18 -8l-18 -7l-19 -7l-17 -7l-19 -6l-20 -5l-19 -5l-20 -3l-9 -1l-11 -1l-20 -3
l-20 -1h-47l-26 2l-26 4l-26 5l-24 6l-24 5l-23 9l-24 9l-22 11l-23 10l-10 7l-11 6l-21 13l-20 14l-20 15l-9 9l-9 8l-9 8l-8 9l-18 17l-17 19l-6 9l-8 11l-15 20l-6 10l-7 10l-6 11l-6 12l-11 20l-11 24l-8 23l-9 24l-7 24l-3 13l-2 11l-3 13l-2 13l-4 25l-1 27l-1 13v13
l1 26l1 26l4 26l5 26l5 24l7 24l9 23l8 24l11 22l11 23l6 10l6 11l13 21l15 20l14 20l9 9l8 9l8 9l10 8l17 18l18 17l10 7l10 7l20 15l11 6l10 7l11 6l10 6l23 11l22 11l24 9l23 8l24 7l13 3l11 2l13 3l13 2l26 4l26 1l13 1h13z" />
    <glyph glyph-name="zhongguonongyeyinhang" unicode="&#xe619;" horiz-adv-x="1025" 
d="M465 894l23 2h48l21 -2v-314l-2 -2l-2 -5h-2l-2 -2l-7 -2h-60l-6 2l-3 2h-4v5l-2 2l-2 8v306v0zM682 386v-153l-2 -4l-2 -2l-2 -4h-5l-4 -2l-9 -2h-90v-241l19 4l20 2l17 6l17 5l9 2l8 4l17 6l18 9l15 9l17 8l15 9l13 11l15 11l28 23l13 13l11 13l12 15l11 13l11 15l9 15
l8 17l9 16l8 17l7 17l11 34l6 18l2 19l4 17l2 20l3 38l-3 30l-1 15v15l-7 30l-8 30l-5 13l-4 13l-11 28l-15 26l-13 26l-17 21l-19 24l-20 21l-21 20l-22 17l-23 17l-26 15l-26 13v-352l-2 -4l-2 -3l-2 -4l-5 -2h-4l-9 -2h-127l-2 -3l-2 -2v149l2 4l2 4l5 2h58l8 2l7 3l4 2
l5 6v327l42 -13l22 -6l19 -7l22 -8l19 -11l20 -9l17 -10l19 -13l17 -11l17 -13l15 -15l18 -15l15 -15l28 -30l13 -17l13 -18l10 -19l11 -17l22 -39l8 -19l7 -22l13 -41l6 -21l4 -22l3 -21l4 -24v-71l-2 -26l-2 -25l-5 -26l-6 -24l-7 -26l-8 -23l-9 -22l-11 -24l-10 -21
l-13 -22l-13 -21l-15 -20l-15 -19l-15 -19l-18 -17l-17 -18l-19 -15l-19 -15l-20 -15l-21 -13l-22 -13l-21 -10l-24 -11l-22 -9l-25 -8l-24 -7l-24 -6l-26 -4l-25 -3l-26 -2l-26 -2l-26 2l-26 2l-26 2l-25 5l-26 6l-24 7l-23 8l-24 9l-22 11l-21 10l-22 13l-21 13l-20 15
l-19 15l-19 15l-17 18l-18 17l-17 19l-15 19l-13 20l-13 21l-13 22l-10 21l-11 24l-9 22l-8 23l-7 26l-6 24l-5 26l-4 25l-2 26v50l2 21l2 24l5 21l4 22l4 21l13 41l9 22l8 19l9 20l11 19l11 17l12 19l14 18l12 17l13 15l15 15l15 15l15 15l35 26l17 13l17 13l19 10l20 9
l19 11l20 8l19 7l21 6l22 7l21 6v-327l2 -4l3 -2l6 -3l7 -2l6 -2h58l5 -2l4 -4v-153l-4 5h-127l-9 2h-4l-3 2l-4 4l-2 2v4l-2 7v346l-26 -13l-24 -15l-23 -17l-24 -17l-21 -20l-20 -21l-17 -24l-17 -23l-15 -24l-13 -26l-7 -13l-4 -15l-11 -28l-6 -28l-7 -30l-2 -15v-15
l-2 -30v-19l2 -20l2 -17l2 -19l5 -20l4 -17l6 -17l3 -8l4 -9l6 -17l7 -18l17 -32l22 -28l11 -15l10 -15l13 -13l13 -13l26 -23l15 -11l15 -11l30 -17l17 -9l15 -9l18 -6l17 -6l19 -5l17 -6l17 -2l20 -5v241h-90l-9 2l-2 3h-5l-4 4l-2 2v4l-2 7v146l2 -2l2 -2l7 -5l6 -2l7 -2
h122l5 -2l4 -4v-146h32v142l2 4l2 4l5 2h122l7 2l6 2l6 5z" />
    <glyph glyph-name="tuxing" unicode="&#xe61b;" 
d="M495 896h39q80 -11 132 -60q41 -38 60 -93.5t8 -111.5q-8 -48 -37.5 -89t-73.5 -67q3 -4 12 -16.5t13 -19.5q47 34 105 42t112 -13q57 -23 95.5 -74.5t45.5 -114.5v-39q-6 -47 -28 -88t-58 -69q-48 -39 -112 -46.5t-120 18.5q-55 25 -90.5 78t-39.5 115h-24
q-8 -67 10 -136q32 -118 113 -240h-271q6 6 12 12.5t12 15t9.5 13.5t9 16.5t7.5 15.5t7 17.5t6 15.5t6.5 18l5.5 16q11 36 17 59.5t12 56t5.5 62.5t-6.5 58h-23q-3 -48 -25 -91.5t-60 -72.5q-47 -40 -111.5 -47.5t-120.5 18.5q-53 24 -88.5 74t-42.5 110v39q7 65 48.5 119
t102.5 74q54 19 109.5 9t101.5 -43q10 20 20 41q-41 28 -60 53q-43 52 -49 121.5t27 127.5q26 48 74 79t103 37z" />
    <glyph glyph-name="-fucaiD" unicode="&#xe657;" 
d="M452 385l5 -2l5 64q-24 -16 -42 -33q8 -6 16 -13t12 -11zM512 895q-104 0 -198.5 -40.5t-163 -109t-109 -163t-40.5 -198.5t40.5 -198.5t109 -163t163 -109t198.5 -40.5t198.5 40.5t163 109t109 163t40.5 198.5t-40.5 198.5t-109 163t-163 109t-198.5 40.5zM876 238
q-30 -33 -81 -62.5t-96 -44.5q-32 -11 -63 -17t-46 -6l-15 -1l41 225l-20 22l-25 -129h-149q-3 -3 -9 -9.5t-29.5 -20t-52.5 -20.5q-95 -26 -186 12q-20 11 -34 29q-15 21 -19.5 48t-2.5 44t3 17h118q-11 -49 24 -64q28 -7 57.5 4.5t38.5 32.5q9 22 6.5 39.5t-11.5 30.5
t-20.5 21.5t-19.5 13t-9 4.5q35 13 56.5 29t29 29.5t7.5 26t-4 20.5t-9 12q-19 12 -35.5 12.5t-26.5 -7t-18 -17t-11 -17.5l-3 -7h-122q9 55 61.5 96t135.5 41q33 1 61 -5.5t44 -16t27.5 -18.5t15.5 -16l4 -6l19 84h212q31 0 60 -9.5t47.5 -21t34 -26t20.5 -21t7 -10.5
q-18 -5 -29.5 -20.5t-11.5 -35.5q0 -25 16 -42t40 -17q16 0 30 9q1 -6 1.5 -16.5t-1.5 -37.5t-7 -52t-18 -55.5t-33 -53.5zM707.5 539q-48.5 0 -82 -32t-33.5 -81.5t33.5 -81t82 -31.5t82 31.5t33.5 81t-33.5 81.5t-82 32z" />
    <glyph glyph-name="jiangbei" unicode="&#xe646;" 
d="M516.5 117q-95.5 0 -176.5 47.5t-128.5 128.5t-47.5 176v363q0 22 15.5 37.5t38.5 15.5h597q22 0 37.5 -15.5t15.5 -37.5v-363q0 -95 -47 -176t-128 -128.5t-176.5 -47.5zM228 821v-352q0 -118 85 -203t203.5 -85t203 85t84.5 203v352h-576zM491 128h64v-235h-64v235z
M704 -128h-341q-10 0 -16 6t-6 15v22q0 9 6 15t16 6h341q10 0 15.5 -6t5.5 -15v-22q0 -9 -5.5 -15t-15.5 -6zM209 309q-76 0 -129.5 56t-53.5 134v188q0 22 15.5 37.5t37.5 15.5h122v-64h-114v-179q0 -51 35.5 -88.5t84.5 -37.5v-62h2zM819 309v64q50 0 85 37t35 89v179
h-111v64h121q23 0 38.5 -15.5t15.5 -37.5v-190q0 -78 -54 -134t-130 -56zM608 354q-11 0 -23 7l-67 34l-68 -37q-33 -13 -53 11q-14 14 -9 38l13 73l-47 49q-22 22 -13 47q4 11 14 19.5t23 10.5l68 11l32 66q13 25 40.5 25t40.5 -25l32 -66l68 -11q30 -7 36 -30
q7 -26 -12 -45l-47 -51l13 -75q3 -21 -11 -38q-10 -13 -30 -13zM518 439q7 0 15 -4l73 -38l2 -2v2l-15 79q-3 12 9 27l51 56l2 2h-2l-73 15q-16 3 -23 17l-36 70l-3 3l-2 -3l-36 -70q-7 -14 -23 -17l-73 -11q-2 0 -2 -2l2 -2l51 -55q9 -9 9 -28l-13 -77v-4h2l73 36q3 6 12 6
z" />
    <glyph glyph-name="zhongxinshiyeyinhang1" unicode="&#xe61c;" 
d="M0 -128v1024h1024v-1024h-1024zM511 -125l-509 510l509 509l510 -509zM359 680l1 5l1 2l1 2l4 4l3 2l17 6l17 7l8 2l9 4l18 4l18 3l10 2l9 1l19 2h38l9 -1l10 -1l18 -3l19 -3l18 -4l18 -6l16 -7l17 -7l3 -3l4 -3l2 -3v-2l1 -3v-3l-1 -3l-1 -3l-1 -2l-2 -2l-3 -1l-6 -4
l-9 -4l-10 -6l-11 -7l-6 -5l-7 -5l-6 -8l-7 -7l-5 -6l-5 -7l-8 -13l-6 -14l-4 -12l-3 -11l-2 -9l-1 -7v-494l-13 -3l-12 -1h-51l-13 2l-13 2v498l-1 7l-2 10l-3 10l-5 12l-5 12l-4 6l-4 7l-4 6l-5 6l-7 7l-5 7l-7 5l-5 5l-7 4l-6 3l-10 6l-7 5l-7 3l-2 1l-3 2l-2 2l-1 3v6v0
zM667 80l-18 -9l-19 -8l-20 -6l-19 -5v487l2 12l3 11l3 10l4 9l5 9l5 8l5 7l6 6l6 6l6 5l11 8l6 4l5 2l5 2l4 2v-560v0zM695 674l15 -11l16 -12l14 -12l14 -12l13 -13l11 -15l7 -8l6 -7l10 -16l9 -16l9 -16l8 -18l7 -18l7 -18l4 -19l4 -18l2 -10l1 -10l-1 -4l-3 -3l-3 -5
l-4 -3l-3 -2l-3 -1l-3 -1l-5 -1h-4l-6 1l-4 1l-5 1l-4 2l-5 2l-5 5l-4 3l-2 2l-4 6l-2 5l-4 7l-1 1l-1 2l-2 2h-5l-2 -2l-3 -2l-3 -4l-4 -7l-7 -11l-2 -8l-3 -8l-1 -5v-5l-1 -11v-6l1 -7l2 -8l3 -8l4 -7l1 -5l2 -3l6 -7l4 -5l2 -1l2 -2h4l1 2l2 1l2 3l4 8l4 5l5 7l3 2l3 4
l4 2l4 2l4 2l5 1l6 1h5l5 -1l4 -1l4 -3l5 -2l3 -4l2 -3l3 -2v-2l-3 -20l-4 -19l-2 -9l-2 -10l-7 -18l-7 -18l-8 -18l-8 -16l-10 -16l-10 -16l-12 -15l-6 -7l-6 -8l-13 -13l-14 -13l-14 -11l-16 -13l-15 -10v579v0zM330 95l-16 13l-9 5l-9 7l-8 7l-8 7l-8 7l-6 8l-15 15l-6 9
l-7 8l-6 9l-6 9l-11 18l-5 10l-5 9l-8 20l-5 10l-3 10l-3 10l-4 11l-2 10l-2 11l-3 22l-3 22l-1 23v11l1 11v11l3 11l1 11l2 11l4 21l7 21l3 10l5 10l8 20l5 9l5 10l11 18l12 18l13 17l15 15l14 15l16 14l18 12l16 13v-251l-1 -3l-1 -3l-3 -4l-4 -3l-4 -2l-2 -1l-4 -1l-3 -2
h-7l-4 2l-5 1l-5 1l-4 2l-4 2l-7 5l-2 3l-2 2l-5 6l-2 5l-3 7l-1 1l-2 2l-2 2h-4l-2 -2l-4 -2l-3 -4l-4 -7l-6 -11l-3 -8l-2 -8l-2 -5v-5l-1 -11v-6l1 -7l3 -8l2 -8l3 -7l2 -5l3 -3l4 -7l6 -5l2 -2l2 -1h3l2 1l1 2l3 3l3 8l4 5l5 7l4 2l3 3l3 3l4 2l4 2l6 1l4 1h6l4 -1l5 -1
l4 -2l3 -2l6 -6l3 -4v-252v0zM434 52l-20 6l-19 5l-9 5l-9 3l-9 4l-9 5v560l8 -3l11 -6l6 -4l5 -3l6 -5l5 -5l6 -7l5 -7l5 -6l5 -8l4 -9l3 -10l3 -10l3 -12v-493v0v0z" />
    <glyph glyph-name="bank-ZJNX-open" unicode="&#xe61d;" horiz-adv-x="1044" 
d="M132 701q16 -1 68 -2t83.5 -3t74.5 -8t73.5 -20.5t49.5 -36.5q-11 -21 -41 -31.5t-86.5 -22.5t-93.5 -25q9 -18 53.5 -28.5t103 -17t117.5 -15.5t105 -32.5t57 -60.5l-218 -79q37 -31 152 -53.5t221.5 -30t172.5 -5.5q30 119 16.5 216t-54 177.5t-108 135.5t-145 91
t-164 43t-166.5 -8.5t-152 -63t-119 -120.5v0zM96 538q18 33 50 51t61.5 22t62.5 14.5t51 29.5l-219 15q-63 -90 -87.5 -185t-10.5 -176.5t52.5 -157.5t102.5 -130.5t138.5 -94.5t162 -49t171.5 5.5t168 68.5t151 142q-40 6 -108 13.5t-120 14t-118 17t-117.5 25.5t-102 36
t-88 52.5t-59.5 70.5q20 29 53.5 45.5t64 21t70 10.5t61.5 13q-28 21 -69.5 32.5t-84.5 16.5t-86.5 11t-83.5 22t-66 43v1z" />
    <glyph glyph-name="zhaohanglogosezhiCD" unicode="&#xe6b8;" 
d="M472 187l132 334l138 -334h-270zM195 187l132 334l138 -334h-270v0zM882 263h103l-5 -19h-89l-9 19v0zM862 310h132l-3 -20h-120zM842 357h158l-3 -20h-146zM823 404h177v-20h-170zM802 451h193l2 -20h-187zM782 498h204l5 -20h-200zM512 871h20l22 -2l20 -1l19 -3l20 -4
l19 -4l19 -6l19 -5l9 -4l9 -3l18 -8l18 -8l17 -9l17 -9l16 -10l16 -11l16 -11l14 -11l15 -13l15 -13l13 -14l13 -13l13 -15l5 -8l6 -7l12 -16l10 -16l10 -15l11 -17l7 -18l9 -17l7 -18l7 -19l7 -18h-209l-129 302l-134 -340l-142 336l-249 -642l114 -141h576l105 154l-10 23
h69l-7 -18l-8 -17l-8 -16l-8 -16l-10 -17l-9 -16l-11 -14l-10 -15l-11 -14l-13 -15l-12 -12l-13 -14l-27 -24l-15 -12l-14 -11l-15 -10l-16 -10l-15 -9l-17 -9l-17 -8l-17 -6l-18 -7l-17 -7l-18 -5l-19 -5l-18 -4l-19 -4l-9 -1l-10 -1l-19 -2l-19 -1h-45l-24 2l-25 3l-25 5
l-23 5l-23 6l-22 8l-22 9l-22 10l-21 10l-10 7l-10 5l-20 13l-19 13l-19 15l-9 7l-8 8l-9 8l-8 8l-17 17l-16 18l-6 9l-7 10l-15 19l-5 9l-7 10l-6 10l-5 11l-11 20l-10 23l-8 21l-8 24l-7 22l-3 12l-3 11l-2 13l-2 12l-3 24l-2 25l-1 13v12l2 25l1 24l3 25l4 25l6 23l7 23
l8 22l8 22l10 22l11 21l5 10l6 10l12 20l15 19l13 19l8 9l8 8l8 9l9 8l17 17l17 15l10 7l9 7l19 14l10 6l10 7l10 5l10 6l21 11l22 10l22 9l22 7l23 7l12 3l11 2l13 3l12 2l25 3l24 1l13 1h12z" />
    <glyph glyph-name="wangshangyinhanglogoxx" unicode="&#xe61e;" 
d="M917 768q34 0 57.5 -23t23.5 -56v-635q0 -32 -22 -54.5t-53 -24.5q-3 -1 -6 -1h-243q-17 0 -28.5 12t-11.5 28v120q0 42 26 74l132 180q-5 10 -15.5 16.5t-21.5 6.5v0q-13 0 -24 -8l-130 -95v0q-22 -16 -49 -16t-49 16l-184 128v1q21 -15 46 -15v0q32 0 55 20l335 296
q14 12 38 21t43 9v0h81zM189 461l214 -252q12 -14 20 -36t8 -40v0v-119q0 -16 -12 -28t-29 -12h-283q-3 0 -6 1q-31 2 -53 24.5t-22 54.5v635q0 33 23.5 56t57.5 23h121q39 0 70 -22v0l242 -169l-139 -123v0q-23 -20 -53 -20v0v0q-24 0 -44 13l-52 36q-11 7 -24 7v0v0
q-12 0 -23.5 -8.5t-15.5 -19.5v-1v0z" />
  </font>
</defs>
</svg>
